<?xml version="1.0" encoding="UTF-8"?>
<svg width="177px" height="111px" viewBox="0 0 177 111" version="1.1" xmlns="http://www.w3.org/2000/svg" xmlns:xlink="http://www.w3.org/1999/xlink">
    <!-- Generator: Sketch 43.1 (39012) - http://www.bohemiancoding.com/sketch -->
    <title>Page 1</title>
    <desc>Created with Sketch.</desc>
    <defs></defs>
    <g id="Page-32" stroke="none" stroke-width="1" fill="none" fill-rule="evenodd">
        <g id="123" transform="translate(-1653.000000, -218.000000)">
            <g id="Group-6" transform="translate(1653.000000, 218.000000)">
                <g id="Page-1">
                    <polygon id="Fill-1" fill="#00A6D7" points="0 111 177 111 177 0 0 0"></polygon>
                    <g id="Group-154" transform="translate(18.000000, 11.250000)">
                        <path d="M1.6085,86.3979 C1.6085,86.3979 67.2755,101.7739 134.7755,86.2849 C134.7755,86.2849 32.9415,83.0009 1.6085,86.3979" id="Fill-2" fill="#0095C3"></path>
                        <path d="M105.8369,67.5643 L98.0039,67.5643 L105.8369,54.1793 L105.8369,67.5643 Z M120.7369,69.4983 L118.8229,67.5843 L115.5249,67.5643 L115.5249,41.4293 L105.5039,41.4293 L88.5039,69.0953 L88.5039,69.5793 L89.0039,75.3653 L105.5869,75.3653 L105.5869,84.5013 L110.6279,84.5013 L115.1699,84.4393 L115.1619,75.1893 L120.7369,75.1893 L120.7369,69.4983 Z" id="Fill-4" fill="#F1F1F1"></path>
                        <path d="M34.3172,67.8252 L26.4842,67.8252 L34.3172,54.4402 L34.3172,67.8252 Z M49.2172,67.7502 L47.3752,67.7812 L44.0052,67.8252 L44.0052,41.6902 L33.9842,41.6902 L16.9842,69.3562 L16.9842,69.8402 L17.4842,75.6262 L34.0672,75.6262 L34.0672,84.7622 L39.1082,84.7622 L43.6502,84.7002 L43.6422,75.4502 L49.2172,75.4502 L49.2172,67.7502 Z" id="Fill-6" fill="#F1F1F1"></path>
                        <path d="M123.2166,71.5279 C123.2166,71.5279 127.9626,71.8249 128.9316,76.7629 C128.9316,76.7629 130.0566,79.6059 129.9626,80.7629 C129.8696,81.9189 127.3566,83.2609 126.4146,82.9789 C126.4146,82.9789 127.1506,79.9399 127.1506,79.5649 C127.1506,79.1899 126.4316,78.4499 126.3066,78.3559 C126.1816,78.2629 125.8956,78.9689 125.8956,78.9689 L116.2446,78.9189 L115.8696,78.2629 L115.3666,78.9689 C115.3666,78.9689 114.9596,79.1099 114.7416,79.2669 C114.5226,79.4229 115.4946,82.9289 115.5256,83.0799 C115.5566,83.2309 112.7126,82.4499 112.3376,81.0439 C112.3376,81.0439 113.2756,73.5439 115.5566,72.6689 L118.8546,71.7629 L123.2166,71.5279 Z" id="Fill-8" fill="#3E575E"></path>
                        <path d="M124.0963,68.3461 C124.0963,68.3461 124.5273,68.0321 124.4483,68.5791 C124.3703,69.1261 124.1053,69.9701 123.8393,70.0791 C123.5733,70.1891 123.5423,70.0171 123.4483,70.2821 C123.3553,70.5481 123.2643,71.1421 123.2393,71.3761 C123.2143,71.6111 123.1203,71.9391 123.1203,71.9391 C123.1203,71.9391 121.6203,74.1891 118.9643,72.2201 C118.9643,72.2201 118.6053,70.7981 118.6203,70.3921 C118.6363,69.9861 118.0273,70.3141 118.0113,69.5321 C117.9953,68.7511 117.8293,68.2721 118.1233,68.2701 C118.4173,68.2671 119.1133,66.5001 119.1133,66.5001 L121.3553,66.8451 L123.1203,67.1111 L124.0963,68.3461 Z" id="Fill-10" fill="#FDAD7E"></path>
                        <path d="M124.1504,68.1376 C124.1504,68.1376 123.5884,68.9816 123.5254,69.5126 C123.5254,69.5126 123.4314,67.6376 123.2754,67.5756 C123.1194,67.5126 120.8694,67.8256 119.3694,67.0756 C119.3694,67.0756 118.2444,67.2936 118.5254,69.5126 C118.5254,69.5126 118.5564,68.7626 118.1814,68.4496 C118.1354,68.4116 118.0954,68.3426 118.0594,68.2496 C117.8074,67.5896 117.8104,65.7366 117.8384,65.3246 C117.8694,64.8566 119.5254,63.8256 121.2124,64.0126 C122.9004,64.1996 123.9944,64.9186 124.1504,65.4816 C124.3064,66.0436 124.2444,67.5436 124.1504,68.1376" id="Fill-12" fill="#402E1C"></path>
                        <path d="M121.2962,89.8569 C121.2962,89.8569 121.0882,90.3559 121.4422,90.5019 C121.7962,90.6479 125.2132,91.8979 127.0042,91.3979 C127.0042,91.3979 128.4002,90.9819 127.8382,89.5129 C127.8382,89.5129 127.3282,88.4959 125.9792,89.1449 C124.6292,89.7939 121.2962,89.8569 121.2962,89.8569" id="Fill-14" fill="#CCE9EE"></path>
                        <path d="M121.1348,74.0126 C123.5538,73.9686 123.1508,71.7626 123.1508,71.7626 C121.3808,74.2706 119.2288,72.3126 118.8958,72.0416 C118.8958,72.0416 119.2958,74.1056 121.0358,74.0596" id="Fill-16" fill="#E59F79"></path>
                        <path d="M121.3808,90.464 C121.3808,90.464 119.0158,91.375 116.9378,91.472 C116.0438,91.513 114.8278,91.234 114.7128,90.795 C114.5528,90.185 114.4628,89.153 116.1658,89.028 L118.0078,90.108 L121.2958,89.857 L121.3808,90.464 Z" id="Fill-18" fill="#CCE9EE"></path>
                        <path d="M121.4421,89.8134 C121.4421,89.8134 123.3331,91.1044 125.9321,90.7934 C125.9321,90.7934 126.2141,90.4534 126.4141,90.1384 C126.5781,89.8804 126.4141,89.2934 126.4141,89.2934 C126.4261,89.0644 123.3561,88.9184 123.3561,88.9184 L121.4421,89.5854 L121.4421,89.8134 Z" id="Fill-20" fill="#3C517E"></path>
                        <path d="M125.3867,89.513 C125.3587,89.576 125.3327,89.64 125.3077,89.703 C125.1987,89.979 125.1117,90.234 124.9417,90.336 C124.7337,90.461 124.8167,90.318 124.9417,90.108 C125.0667,89.898 125.2197,89.751 125.2477,89.606" id="Fill-22" fill="#CCE9EE"></path>
                        <path d="M124.8152,89.513 C124.7872,89.576 124.7612,89.64 124.7362,89.703 C124.6272,89.979 124.5402,90.234 124.3702,90.336 C124.1622,90.461 124.2452,90.318 124.3702,90.108 C124.4952,89.898 124.6482,89.751 124.6762,89.606" id="Fill-24" fill="#CCE9EE"></path>
                        <path d="M121.2962,89.8569 C121.2962,89.8569 120.7182,88.9449 120.5112,88.8659 C120.3042,88.7869 118.6662,88.7469 118.6662,88.7469 C118.6662,88.7469 118.2912,89.1689 118.0252,89.1379 C117.7602,89.1059 116.1662,88.9809 116.1662,89.1379 C116.1662,89.2939 116.6502,90.3119 116.4782,90.7949 C116.3062,91.2779 116.6352,91.1529 116.6352,91.1529 C116.6352,91.1529 120.5202,90.4669 121.2962,90.3799 L121.2962,89.8569 Z" id="Fill-26" fill="#3C517E"></path>
                        <path d="M124.2138,89.3787 C124.1858,89.4417 124.1598,89.5057 124.1348,89.5687 C124.0258,89.8447 123.9388,90.0997 123.7688,90.2017 C123.5608,90.3267 123.6438,90.1837 123.7688,89.9737 C123.8938,89.7637 124.0468,89.6167 124.0748,89.4717" id="Fill-28" fill="#CCE9EE"></path>
                        <path d="M120.4856,88.7314 C120.4856,88.7314 120.6356,89.6684 120.9826,89.7934 C121.3296,89.9184 123.2166,89.3044 123.3926,89.0284 C123.5676,88.7524 122.8606,87.3254 122.8606,87.3254 L119.7046,87.3254 L118.8966,88.7474 C118.8966,88.7474 119.3916,89.1064 120.4856,88.7314" id="Fill-30" fill="#FEB273"></path>
                        <path d="M122.8692,87.3251 L121.1532,88.2941 C121.1532,88.2941 119.9002,87.4811 119.7132,87.3251 C119.5252,87.1691 119.2132,88.5441 119.0562,88.6691 C118.9002,88.7941 118.7132,88.9501 118.4322,88.9811 C118.1502,89.0121 116.0882,88.8251 115.5882,88.9811 C115.0882,89.1371 114.6372,89.7001 114.5342,89.6381 C114.4312,89.5751 112.4002,88.0751 111.3382,87.5441 C110.2752,87.0131 108.2752,85.4811 108.4632,83.3251 C108.4632,83.3251 109.2442,81.4811 111.2442,82.5441 L114.6092,83.7941 C114.6092,83.7941 120.4562,87.7001 127.5372,83.9811 C127.5372,83.9811 131.9632,81.9681 132.5882,82.1941 C133.2132,82.4191 134.4002,83.0441 133.7442,84.6371 C133.0882,86.2311 131.8072,87.1381 131.0572,87.5441 C130.3062,87.9501 128.1812,88.8561 127.7752,89.3251 C127.7752,89.3251 127.1502,88.7941 126.5412,88.9191 C125.9322,89.0441 125.1502,89.7311 124.7752,89.8881 C124.4002,90.0441 123.9312,90.2941 123.7132,89.8881 C123.4942,89.4811 122.8692,87.3251 122.8692,87.3251" id="Fill-32" fill="#333B4E"></path>
                        <polygon id="Fill-34" fill="#D5D8D8" points="114.7129 83.6064 114.6089 84.2934 116.3589 86.1484 119.9209 86.1484 125.4629 86.1484 127.5379 84.2004 127.3799 83.6064 125.8129 84.9814 115.9969 85.0954"></polygon>
                        <polygon id="Fill-36" fill="#99999B" points="125.8125 84.9814 127.1505 83.7944 126.2755 83.6064"></polygon>
                        <polygon id="Fill-38" fill="#99999B" points="116.0201 85.1822 114.7131 83.6062 115.5881 83.6062"></polygon>
                        <polygon id="Fill-40" fill="#A8ACA5" points="119.9702 86.7522 122.0122 86.7522 122.0122 86.1482 121.7412 86.1482 121.6992 86.4502 120.3662 86.4502 120.3662 86.1482 119.9912 86.1482"></polygon>
                        <polygon id="Fill-42" fill="#C2C7C8" points="116.0827 85.4189 114.5347 79.5649 114.9477 78.9689 126.8957 78.9689 127.5377 79.4239 125.7707 85.4189"></polygon>
                        <path d="M121.0358,83.3251 C121.0358,83.3251 119.5258,83.2001 120.3688,82.4811 C120.3688,82.4811 121.8688,82.1381 121.8688,82.7631 C121.8688,83.3871 121.2028,83.2001 121.0358,83.3251" id="Fill-44" fill="#F1F1F1"></path>
                        <polygon id="Fill-46" fill="#CDD2D3" points="114.5342 79.5646 114.9482 78.9686 126.8952 78.9686 127.4962 79.5646"></polygon>
                        <path d="M117.3848,89.2939 C117.3538,89.4809 117.2438,89.8759 117.3848,90.1079 C117.5258,90.3409 117.7128,90.4969 117.7128,90.4969 C117.7128,90.4969 117.4008,89.9659 117.4318,89.6379 C117.4628,89.3099 117.3848,89.2939 117.3848,89.2939" id="Fill-48" fill="#CCE9EE"></path>
                        <path d="M117.926,89.4335 C117.906,89.5515 117.837,89.8005 117.926,89.9475 C118.015,90.0945 118.133,90.1935 118.133,90.1935 C118.133,90.1935 117.936,89.8575 117.956,89.6505 C117.975,89.4435 117.926,89.4335 117.926,89.4335" id="Fill-50" fill="#CCE9EE"></path>
                        <path d="M118.3376,89.3787 C118.3176,89.4967 118.2486,89.7457 118.3376,89.8927 C118.4266,90.0397 118.5446,90.1387 118.5446,90.1387 C118.5446,90.1387 118.3476,89.8027 118.3676,89.5957 C118.3866,89.3887 118.3376,89.3787 118.3376,89.3787" id="Fill-52" fill="#CCE9EE"></path>
                        <path d="M26.9125,84.0299 C26.9125,84.0299 27.2625,83.7799 27.8255,84.0299 C28.3875,84.2799 32.6375,85.4049 31.3875,87.0929 C31.3875,87.0929 30.8875,87.5239 30.7005,87.3399 C30.5125,87.1549 30.9815,87.9129 30.7005,88.2369 C30.4195,88.5609 28.8515,88.5759 28.4485,88.3029 C28.0445,88.0299 26.6425,87.6879 26.6425,87.3399 C26.6425,86.9919 26.9125,84.0299 26.9125,84.0299" id="Fill-54" fill="#B4536D"></path>
                        <path d="M26.8914,84.2044 C26.8914,84.2044 30.1994,85.2474 30.2614,85.7474 C30.3244,86.2474 30.2614,86.4344 29.9494,86.5914 C29.6364,86.7474 26.6724,85.7024 26.6724,85.7024 L26.8914,84.2044 Z" id="Fill-56" fill="#FEC38C"></path>
                        <path d="M26.6726,85.8428 C26.6726,85.8428 29.4486,86.8348 29.5426,87.3068 C29.6366,87.7788 28.8506,88.0908 28.4776,87.9348 C28.1056,87.7788 26.7396,87.1388 26.6726,86.9588 C26.6056,86.7788 26.6726,85.8428 26.6726,85.8428" id="Fill-58" fill="#FEC38C"></path>
                        <path d="M13.0272,73.1906 C13.0272,73.1906 10.8392,73.9716 11.1832,75.7216 C11.5272,77.4716 11.8872,80.1776 11.8872,80.1776 C11.8872,80.1776 12.5272,80.2846 13.0272,80.4406 C13.5272,80.5966 14.2762,81.0506 14.6212,81.6586 C14.9662,82.2666 14.7172,82.0306 14.9662,82.2666 C15.2152,82.5036 20.2062,80.0916 21.8712,80.1916 C23.1702,80.2696 23.5072,80.7476 23.1212,80.3466 C22.7152,79.9246 20.9332,80.3316 20.3392,78.8626 C19.7782,77.4726 20.2462,76.0346 20.3712,75.7216 C20.4962,75.4096 20.4732,73.1036 19.0942,72.8186 C17.7142,72.5346 17.5892,72.8486 17.5892,72.8486 L13.0272,73.1906 Z" id="Fill-60" fill="#A95479"></path>
                        <path d="M27.0632,84.1741 C27.0632,84.1741 26.9692,85.5771 26.8442,85.6721 C26.7192,85.7681 27.2822,86.6101 27.0632,86.8451 C26.8442,87.0801 23.6572,87.1681 22.8762,87.3901 C22.0942,87.6121 19.7192,88.0181 19.3762,88.1121 C19.0322,88.2051 15.2442,88.1841 15.0022,88.1121 C14.7592,88.0391 12.7302,87.5771 13.0592,86.4501 C13.3882,85.3231 12.6852,83.5791 16.3892,83.0481 C20.0942,82.5181 22.0942,84.1741 27.0632,84.1741" id="Fill-62" fill="#414561"></path>
                        <path d="M2.4287,86.9866 C2.4287,86.9866 2.4237,87.5286 2.4287,87.5316 C2.4337,87.5346 9.4337,90.0346 9.4957,90.0036 C9.5587,89.9716 15.1237,88.1906 15.1537,88.0656 C15.1837,87.9406 15.1517,87.6286 15.1517,87.6286 L2.4287,86.9866 Z" id="Fill-64" fill="#D6D7D8"></path>
                        <path d="M8.621,85.8138 C8.621,85.8138 9.089,85.4708 9.105,85.5808 C9.121,85.6908 15.058,87.4408 15.152,87.6278 C15.246,87.8158 9.879,89.5648 9.683,89.5028" id="Fill-66" fill="#CCCECE"></path>
                        <path d="M9.6522,89.0656 C9.6522,89.0656 12.3082,88.0656 12.5582,87.9406 C12.8082,87.8156 9.2462,86.6276 9.1212,86.6596 C8.9962,86.6906 9.6522,89.0656 9.6522,89.0656" id="Fill-68" fill="#414244"></path>
                        <polygon id="Fill-70" fill="#C2C5CD" points="2.496 87.2213 0.902 81.6593 8.183 83.6583 9.683 89.5023"></polygon>
                        <path d="M11.0538,70.8606 C11.0538,70.8606 11.2408,71.2356 11.3978,71.7356 C11.5538,72.2356 12.6428,73.3426 13.4538,73.6106 C13.4538,73.6106 13.0538,75.3296 13.2098,76.2046 C13.3668,77.0796 14.5878,77.7046 15.1798,77.2666 C15.7728,76.8296 16.7958,75.6946 17.0848,74.5796 C17.3748,73.4646 17.7098,72.8916 17.8658,72.8606 C18.0228,72.8296 16.1508,73.1736 16.0868,70.6736 L16.8978,69.9856 L16.4908,67.5796 L14.7418,67.3916 L12.5978,67.3916 L11.0538,70.8606 Z" id="Fill-72" fill="#FFC489"></path>
                        <path d="M4.6835,86.2844 C4.6835,86.2844 3.9645,85.3784 4.4965,85.1904 C5.0275,85.0034 5.6835,86.0034 5.5275,86.2844 C5.3705,86.5654 4.8125,86.4674 4.6835,86.2844" id="Fill-74" fill="#FEFEFE"></path>
                        <path d="M16.1522,70.3469 C15.9842,70.3609 15.9022,70.0659 16.1522,69.7849 C16.4022,69.5029 16.5582,68.9719 16.4332,68.7529 C16.3082,68.5349 15.8712,68.0969 15.6212,68.1589 C15.3712,68.2219 15.0242,68.6599 15.1662,68.9409 C15.3082,69.2219 15.1662,69.5029 15.1662,69.5029 C15.1662,69.5029 14.8402,69.5909 14.7152,69.2499 C14.5902,68.9099 13.8712,68.0969 13.6832,68.0029 C13.4962,67.9089 13.3392,67.8469 13.2142,68.0029 C13.0892,68.1589 13.0272,68.5659 12.9332,68.6599 C12.8392,68.7529 11.2772,70.2849 11.0272,70.3469 C10.7772,70.4089 10.9652,70.5339 11.0272,70.7529 C11.0902,70.9719 10.4652,70.3159 10.3712,70.0349 C10.2772,69.7529 10.1522,68.4379 10.3712,67.9079 C10.5902,67.3779 11.9022,66.0969 12.1832,66.0659 C12.4642,66.0349 14.2462,66.1599 14.5272,66.0659 C14.8082,65.9719 13.7932,65.0659 13.3632,65.1279 C13.3632,65.1279 14.1522,64.5659 14.5272,64.6279 C14.9022,64.6909 19.3712,66.0659 21.8712,73.2849 C21.8712,73.2849 21.6832,73.8469 20.3082,73.6909 C20.3082,73.6909 19.2152,72.4719 18.2152,72.7219 C18.2152,72.7219 17.2462,70.2529 16.1522,70.3469" id="Fill-76" fill="#40301D"></path>
                        <path d="M12.6835,65.4021 C12.6835,65.4021 12.1775,65.5931 12.4935,65.9351 L14.4645,65.9351 C14.4645,65.9351 14.4505,65.3231 14.2775,65.4021 C14.1035,65.4811 12.6835,65.4021 12.6835,65.4021" id="Fill-78" fill="#FCDB32"></path>
                        <path d="M13.3071,65.0084 C13.5841,64.9694 13.9671,65.3584 14.0101,65.3954 C14.0531,65.4314 12.6831,65.4024 12.6831,65.4024 C12.6831,65.4024 12.9931,65.0524 13.3071,65.0084" id="Fill-80" fill="#CEAD44"></path>
                        <path d="M16.0602,70.5656 C16.0392,70.3386 15.8402,70.9096 15.8402,71.1906 C15.8402,71.4716 16.0912,71.6276 15.9502,72.0026 C15.8082,72.3776 14.8082,73.5576 14.4652,73.7176 C14.1212,73.8786 13.3582,73.6906 13.4272,73.5966 C13.4962,73.5036 13.4272,73.9716 13.4272,73.9716 L14.2772,74.2216 C14.2772,74.2216 15.3712,72.9716 15.7772,72.7846 C16.1832,72.5966 16.6212,72.5966 16.7462,72.9096 C16.8712,73.2216 16.9022,74.0656 16.7462,74.2216 C16.5902,74.3786 16.9652,74.2536 17.1212,73.9096 C17.2772,73.5656 17.5902,72.7216 17.5902,72.7216 C17.5902,72.7216 16.2492,72.5656 16.0602,70.5656" id="Fill-82" fill="#EBB683"></path>
                        <path d="M17.8756,75.8781 C17.8756,75.8781 19.0586,76.4091 20.1836,75.7221 C20.1836,75.7221 19.3446,79.8471 19.0296,80.6901 C18.7146,81.5341 18.5896,81.3461 18.4956,81.6591 C18.4026,81.9721 17.8396,82.3151 17.5896,82.3781 C17.3396,82.4401 15.3396,83.6051 14.4646,83.8511 C13.5896,84.0971 13.7776,84.4721 13.5586,84.7221 C13.3396,84.9721 12.3296,86.1551 12.0586,86.3161 C11.7876,86.4761 11.0176,86.4851 11.0536,86.2441 C11.0896,86.0031 11.0896,85.2301 12.9026,83.8511 C12.9026,83.8511 16.0896,81.2441 16.9956,81.0771 C16.9956,81.0771 17.5906,75.7841 17.8756,75.8781" id="Fill-84" fill="#FFC489"></path>
                        <path d="M11.3085,75.7219 C11.3085,75.7219 11.6205,76.2219 12.0585,76.4089 C12.4955,76.5969 11.8405,78.5659 11.8875,79.0969 C11.9335,79.6279 12.2395,80.1909 12.5715,80.3469 C12.9025,80.5029 12.1335,81.9719 11.9395,82.2839 C11.7455,82.5969 11.5275,83.0029 11.3085,83.5029 C11.0895,84.0029 11.2345,84.2219 11.0525,84.3469 C10.8715,84.4719 10.4095,84.5659 10.2495,84.5349 C10.0895,84.5029 8.8905,84.7679 8.6205,84.5409 C8.3515,84.3139 8.4405,83.9799 8.7965,83.8509 C9.1525,83.7219 10.2775,83.5659 10.4025,83.5339 C10.5275,83.5029 11.2775,80.3829 11.4335,80.1779 C11.5895,79.9719 10.8715,76.6909 11.3085,75.7219" id="Fill-86" fill="#FFC489"></path>
                        <path d="M18.8594,80.8906 C18.8594,80.8906 21.5004,79.5876 23.2244,80.4516 C24.9474,81.3146 24.8534,82.9716 24.7914,83.2216 C24.7284,83.4716 25.0004,84.2836 24.8174,84.3146 C24.6354,84.3466 16.5334,82.9246 16.3144,83.0186 C16.0954,83.1126 18.7294,82.1206 18.8594,80.8906" id="Fill-88" fill="#393C51"></path>
                        <path d="M19.496,86.1425 C19.496,86.1425 12.309,86.6955 13.684,84.3155 C13.684,84.3155 13.327,85.1505 13.24,85.4965 C13.152,85.8415 13.184,85.9795 13.027,86.1135 C12.871,86.2475 17.621,86.3805 19.496,86.1425" id="Fill-90" fill="#393C51"></path>
                        <polyline id="Fill-92" fill="#00A6D7" points="63.1158 38.6346 74.7738 38.6346 73.8488 40.6656 64.1618 40.6656"></polyline>
                        <path d="M73.7519,62.7196 C73.8139,66.3806 73.8219,70.0636 73.6759,72.0786 C73.2909,77.3506 68.8329,77.1426 68.8329,77.1426 C63.8329,77.0526 63.8329,71.9236 63.8329,71.9236 C63.8329,71.9236 63.8329,67.4336 63.8689,62.7196 L53.4639,62.7196 C53.4689,65.5596 53.5849,68.5716 53.8949,70.8136 C54.6449,76.2356 56.2739,79.3366 60.0349,82.3286 C63.1949,84.8426 69.2249,84.7156 69.2249,84.7156 C82.1949,84.3976 83.4579,71.1426 83.4579,71.1426 C83.7999,68.8696 83.8739,65.7166 83.8379,62.7196 L73.7519,62.7196 Z" id="Fill-94" fill="#F1F1F1"></path>
                        <path d="M63.8326,54.0188 C63.8326,54.0188 63.8326,48.8898 68.8326,48.7998 C68.8326,48.7998 73.2906,48.5918 73.6756,53.8648 C73.8226,55.8798 73.8136,59.5618 73.7516,63.2228 L83.8376,63.2228 C83.8736,60.2258 83.7996,57.0738 83.4576,54.7998 C83.4576,54.7998 82.1946,41.5448 69.2246,41.2268 C69.2246,41.2268 63.1946,41.1008 60.0356,43.6138 C56.2736,46.6068 54.6446,49.7078 53.8946,55.1288 C53.5846,57.3708 53.4686,60.3828 53.4646,63.2228 L63.8696,63.2228 C63.8326,58.5088 63.8326,54.0188 63.8326,54.0188" id="Fill-96" fill="#F1F1F1"></path>
                        <path d="M61.8811,32.0548 C61.8811,32.0548 61.3721,31.8948 61.3931,31.4158 C61.4131,30.9368 61.8721,28.0818 63.3301,27.6028 C64.7881,27.1238 64.5751,27.1238 66.5361,26.6868 C68.4971,26.2488 72.6221,26.5818 74.1841,27.5818 C75.7471,28.5818 76.0801,29.6238 76.1221,30.1238 C76.1631,30.6238 76.3091,31.7358 76.2261,31.9618 C76.1431,32.1868 76.0591,31.9778 75.8931,31.9778 C75.7261,31.9778 73.8291,32.5198 73.8301,32.6868 C73.8311,32.8528 73.9151,34.2148 73.9151,34.2148 L63.9941,34.2148 L61.8811,32.0548 Z" id="Fill-98" fill="#F77F3E"></path>
                        <path d="M76.0625,31.9156 L76.1665,36.9776 C76.1665,36.9776 75.3845,38.1636 74.6295,38.2896 C73.8745,38.4156 73.8745,32.6236 73.8745,32.6236 C73.8745,32.6236 75.4585,31.7696 76.0625,31.9156" id="Fill-100" fill="#FAC693"></path>
                        <path d="M63.9481,32.8322 C63.9481,32.8322 62.4061,32.1032 61.8651,32.1862 C61.8651,32.1862 61.6981,37.0692 61.8651,37.4402 C62.0311,37.8112 63.1561,38.6652 63.3231,38.7282 C63.4901,38.7902 64.1771,34.0612 63.9481,32.8322" id="Fill-102" fill="#FFC691"></path>
                        <path d="M73.9145,42.6551 C73.9145,42.6551 65.0795,42.5611 63.8565,43.0301 L65.5705,50.4361 C65.5705,50.4361 65.0705,50.7181 64.8515,50.9681 C64.6335,51.2181 62.3835,51.0611 62.2265,51.1551 C62.0705,51.2491 59.6015,42.0621 59.5705,41.8581 C59.5395,41.6551 59.6955,39.7491 60.8515,39.3431 C62.0085,38.9361 62.7545,38.7291 62.7545,38.7291 L75.4375,38.9361 C75.4375,38.9361 77.1955,39.2801 77.5395,39.9831 C77.8835,40.6861 77.7275,41.9991 77.5395,42.6551 C77.3525,43.3111 75.4455,50.8431 75.1645,50.9991 C74.8835,51.1551 72.4455,50.9681 72.4455,50.9681 L71.8105,50.5611 L73.9145,42.6551 Z" id="Fill-104" fill="#97DAF6"></path>
                        <polyline id="Fill-106" fill="#797C7C" points="74.6406 38.5718 74.5606 38.5718 63.0836 38.5718 64.1616 40.6658 73.8486 40.6658 74.8026 38.5718"></polyline>
                        <polygon id="Fill-108" fill="#C2C7C8" points="64.1615 40.6656 62.6135 34.8116 63.0265 34.2156 74.9745 34.2156 75.6165 34.6706 73.8495 40.6656"></polygon>
                        <path d="M69.1147,38.5718 C69.1147,38.5718 67.6047,38.4468 68.4477,37.7278 C68.4477,37.7278 69.9477,37.3848 69.9477,38.0098 C69.9477,38.6338 69.2817,38.4468 69.1147,38.5718" id="Fill-110" fill="#F1F1F1"></path>
                        <polygon id="Fill-112" fill="#CDD2D3" points="62.6131 34.8113 63.0271 34.2153 74.9741 34.2153 75.5751 34.8113"></polygon>
                        <polygon id="Fill-114" fill="#ACAFAF" points="63.0835 38.5718 62.8135 39.2338 64.0205 41.3948 67.9995 41.3948 73.8025 41.3948 74.8645 39.3428 74.8025 38.5718 73.8495 40.6658 64.1615 40.6658"></polygon>
                        <path d="M66.4453,26.7112 C66.4453,26.7112 66.8023,29.7702 68.6773,30.0402 C68.6773,30.0402 70.3853,30.2942 71.2813,26.7112 L66.4453,26.7112 Z" id="Fill-116" fill="#EFB88C"></path>
                        <path d="M66.0082,24.9099 C66.0082,24.9099 65.7652,26.0199 66.0082,26.3529 C66.0082,26.3529 66.3552,26.5619 66.3972,26.5619 C66.4392,26.5619 66.8142,28.7909 68.4392,29.1869 C68.4392,29.1869 70.3552,29.4779 71.2302,26.4989 C71.2302,26.4989 71.5432,26.3949 71.7302,26.2909 C71.9182,26.1869 72.0142,25.2969 71.8972,25.1449 C71.7802,24.9929 71.3352,23.3949 71.3352,23.3949 L68.4392,22.4369 L66.5432,23.3529 L66.0082,24.9099 Z" id="Fill-118" fill="#FFC691"></path>
                        <path d="M71.1564,25.6447 L71.1564,23.7907 C71.1564,23.7907 68.3644,23.8327 67.6564,23.1027 C67.6564,23.1027 66.7814,23.9777 66.5524,24.0197 C66.5524,24.0197 66.3644,24.8947 66.4064,25.2277 C66.4484,25.5617 66.1984,25.9367 66.1564,25.5197 C66.1144,25.1027 65.5944,23.1867 65.7194,22.3527 C65.8444,21.5197 66.7604,20.4157 67.4064,20.2697 C68.0524,20.1237 70.3234,20.1237 70.3234,20.1237 C70.3234,20.1237 71.7184,21.7697 72.7394,21.8317 C72.7394,21.8317 72.9684,22.7067 71.9684,23.6657 C71.8234,23.8737 71.7394,24.6867 71.7184,25.0197 C71.6984,25.3527 71.1564,25.8947 71.1564,25.6447" id="Fill-120" fill="#564C3E"></path>
                        <path d="M69.8833,41.3947 C69.8833,41.3947 69.1963,41.9987 69.0393,42.2177 C68.8833,42.4367 68.5393,42.2487 68.4143,42.2177 C68.2893,42.1867 68.1523,41.7277 67.9603,41.5617 C67.7683,41.3947 69.8833,41.3947 69.8833,41.3947" id="Fill-122" fill="#89CDEA"></path>
                        <path d="M71.8872,50.9776 C71.8872,50.9776 71.6312,51.9366 71.8832,52.1446 C72.1352,52.3526 73.1562,52.8326 73.4692,53.0826 C73.7812,53.3326 74.5312,53.8416 74.7812,54.1286 C75.0312,54.4156 76.5102,54.8736 76.9272,54.4576 C77.3442,54.0406 77.4902,53.5616 77.4062,53.3116 C77.3232,53.0616 76.6512,52.8136 76.6512,52.8136" id="Fill-124" fill="#F6F8F7"></path>
                        <path d="M72.521,50.7802 L71.948,50.5612 C71.948,50.5612 73.883,42.8742 73.915,42.6552 C73.946,42.4362 72.708,50.7802 72.708,50.7802 L72.521,50.7802 Z" id="Fill-126" fill="#89CDEA"></path>
                        <path d="M65.7085,50.4364 C65.7085,50.4364 65.2715,50.4364 65.1145,50.7804 C64.9585,51.1234 63.8565,43.0304 63.8565,43.0304 L65.7085,50.4364 Z" id="Fill-128" fill="#89CDEA"></path>
                        <path d="M60.3231,53.3114 C60.1771,53.4984 60.1421,53.9934 60.1831,54.1604 C60.2251,54.3264 60.8651,55.0624 62.1151,54.6244 C62.1151,54.6244 64.5101,52.8744 64.9691,52.7074 C65.4271,52.5404 66.0311,52.2284 66.0731,51.9784 C66.1151,51.7284 65.8711,51.1554 65.8711,51.1554 L60.3231,53.3114 Z" id="Fill-130" fill="#F6F8F7"></path>
                        <path d="M71.9482,50.6495 C71.9482,50.6495 71.8652,50.7755 71.8872,50.9775 C71.9132,51.2175 72.0862,51.5635 72.7192,51.9365 C72.7192,51.9365 74.8052,53.9575 75.6162,54.0825 C76.4272,54.2075 77.0732,54.1035 77.2402,53.4575 L75.1352,51.1555 L75.0732,50.9155 L71.9482,50.6495 Z" id="Fill-132" fill="#3A3743"></path>
                        <path d="M65.5858,50.4505 C65.5858,50.4505 66.0108,51.2695 65.8858,51.4785 C65.7608,51.6865 64.9898,52.0195 64.6768,52.2695 C64.3648,52.5195 62.7608,53.6655 62.3018,53.8325 C61.8438,53.9985 60.7608,54.3735 60.5108,53.9985 C60.3858,53.8115 60.3228,53.6295 60.3228,53.4755 C60.3228,53.3225 60.3858,53.1965 60.5108,53.1235 C60.7608,52.9785 62.4268,51.3545 62.4688,51.1555 C62.5108,50.9575 65.5858,50.4505 65.5858,50.4505" id="Fill-134" fill="#3A3743"></path>
                        <path d="M96.0565,25.584 L107.7445,25.584 C107.7445,25.584 108.5565,23.271 110.9315,23.271 C110.9315,23.271 110.5565,18.272 116.3065,18.834 C116.3065,18.834 119.7435,12.334 124.6815,18.397 C124.6815,18.397 129.3695,17.084 130.8695,22.459 C130.8695,22.459 133.1815,22.021 134.1815,24.209 C134.1815,24.209 136.6815,22.334 138.0565,25.584 L147.7445,25.584" id="Stroke-136" stroke="#FCFDFD" stroke-width="0.3"></path>
                        <path d="M105.494,28.0215 L119.119,28.0215" id="Stroke-138" stroke="#FCFDFD" stroke-width="0.3"></path>
                        <path d="M114.9315,29.584 L117.1195,29.584" id="Stroke-140" stroke="#FCFDFD" stroke-width="0.3"></path>
                        <path d="M127.369,30.0215 L141.307,30.0215" id="Stroke-142" stroke="#FCFDFD" stroke-width="0.3"></path>
                        <path d="M3.6612,11 L15.7442,11 C15.7442,11 16.9942,9.667 18.7442,10.5 C18.7442,10.5 20.2442,5.25 24.5782,7.583 C24.5782,7.583 26.9882,3.333 31.5752,5.583 C31.5752,5.583 33.6822,6.25 33.5462,10.25 C33.5462,10.25 35.2862,10.417 35.6402,11 L40.8392,11" id="Stroke-144" stroke="#FEFEFE" stroke-width="0.3"></path>
                        <path d="M8.8279,12.4167 L22.2499,12.1667" id="Stroke-146" stroke="#FEFEFE" stroke-width="0.3"></path>
                        <path d="M25.6404,13.9792 L31.4634,13.9792" id="Stroke-148" stroke="#FEFEFE" stroke-width="0.3"></path>
                        <path d="M52.6817,4.5369 L61.2737,4.5369 C61.2737,4.5369 62.1627,3.5889 63.4077,4.1809 C63.4077,4.1809 64.4737,0.4479 67.5557,2.1069 C67.5557,2.1069 69.2697,-0.9151 72.5307,0.6849 C72.5307,0.6849 74.0297,1.1589 73.9327,4.0039 C73.9327,4.0039 75.1697,4.1219 75.4217,4.5369 L79.1187,4.5369" id="Stroke-150" stroke="#FEFEFE" stroke-width="0.3"></path>
                        <path d="M61.3109,6.6554 L65.4519,6.6554" id="Stroke-152" stroke="#FEFEFE" stroke-width="0.3"></path>
                    </g>
                </g>
            </g>
        </g>
    </g>
</svg>