<?xml version="1.0" encoding="UTF-8"?>
<svg width="133px" height="31px" viewBox="0 0 133 31" version="1.1" xmlns="http://www.w3.org/2000/svg" xmlns:xlink="http://www.w3.org/1999/xlink">
    <!-- Generator: Sketch 43.1 (39012) - http://www.bohemiancoding.com/sketch -->
    <title>Group 28</title>
    <desc>Created with Sketch.</desc>
    <defs></defs>
    <g id="UI-kit" stroke="none" stroke-width="1" fill="none" fill-rule="evenodd">
        <g id="UI-KIT" transform="translate(-130.000000, -47.000000)">
            <g id="Group-29" transform="translate(130.000000, 47.000000)">
                <g id="Group-28">
                    <path d="M4.53025237e-13,0 C4.53025237e-13,0 10.4602368,7.98779891 22.9128997,2.49618716 C22.9128997,2.49618716 30.3844974,7.98779891 29.8863909,16.4748353 C29.6611694,20.3122938 28.8901779,24.9618716 22.9128997,29.4550085 C22.9128997,29.4550085 16.9356215,26.9588213 11.4564499,27.9572962 L11.4564499,22.9649219 C11.4564499,22.9649219 17.433728,22.9649219 21.9166867,24.4626342 C21.9166867,24.4626342 25.0029144,21.9137931 25.0029144,16.5819915 C25.0029144,13.6293103 24.4179521,11.0319456 21.9166867,7.98779891 C21.9166867,7.98779891 15.441302,11.4824609 6.97349122,8.48703634 L6.97349122,28.9557711 C6.97349122,28.9557711 4.48295864,29.4550085 1.99242606,30.9527208 L1.99242606,6.49008662 C1.99242606,6.49008662 0.498106516,5.99084918 0,5.49161175 L4.53025237e-13,0 Z" id="Path-2" fill="#519DC7"></path>
                    <path d="M11.7627302,13.8965517 C11.7627302,13.8965517 16.842091,14.6982759 20.5847779,13.362069 C20.5847779,13.362069 21.3867822,16.5689655 20.5847779,19.7758621 C20.5847779,19.7758621 17.9114301,18.7068966 11.7627302,18.9741379 C11.7627302,19.2413793 11.7627302,13.8965517 11.7627302,13.8965517 Z" id="Path-4" fill="#519DC7"></path>
                    <g id="logo-01" transform="translate(40.100217, 4.939916)" fill-rule="nonzero" fill="#525252">
                        <g id="Group" transform="translate(46.000000, 12.456635) scale(-1, 1) rotate(-180.000000) translate(-46.000000, -12.456635) translate(0.000000, 0.456635)">
                            <path d="M87.6699853,22.5765517 C82.4384074,20.4364828 81.6642277,19.2841379 81.4530878,13.2402069 C81.3357878,9.05413793 81.4296278,8.27806897 82.2976474,7.26682759 C84.2213667,4.96213793 89.1479647,4.96213793 91.0951439,7.26682759 C91.9397036,8.30158621 92.0100836,8.67786207 91.9162436,11.9467586 C91.8458636,15.004 91.6581837,15.4978621 90.2505843,16.5561379 C89.4764046,17.1205517 86.7785056,17.3557241 85.6289661,16.9794483 C84.6436465,16.6266897 84.7140265,17.0029655 85.816646,18.0847586 C86.4031458,18.6962069 87.3884654,19.2606207 88.9837448,19.872069 C90.2271243,20.365931 91.2593639,20.9068276 91.2593639,21.0714483 C91.2593639,21.5417931 90.3678842,23.5172414 90.1567443,23.4937241 C90.0629043,23.4937241 88.9368248,23.0704138 87.6699853,22.5765517 Z M88.1861051,13.6635172 C88.7960649,13.052069 89.0541247,11.2647586 88.7022249,10.0653793 C88.467625,9.33634483 88.2330251,9.05413793 87.5996053,8.79544828 C85.840106,8.04289655 84.6905665,9.10117241 84.6905665,11.4528966 C84.6905665,12.7463448 84.7844064,13.0285517 85.2770662,13.5224138 C86.004326,14.2749655 87.5292254,14.322 88.1861051,13.6635172 Z" id="Shape"></path>
                            <path d="M3.65975855,18.8843448 C3.47207863,14.5571724 3.12017876,11.688069 2.67443894,10.6062759 C2.15831915,9.40689655 1.43105943,8.70137931 0.65687974,8.70137931 L2.45267193e-16,8.70137931 L2.45267193e-16,5.29137931 L2.45267193e-16,1.88137931 L1.64219935,1.88137931 L3.2843987,1.88137931 L3.2843987,3.76275862 L3.2843987,5.64413793 L8.3282967,5.64413793 L13.3721947,5.64413793 L13.3721947,3.76275862 L13.3721947,1.88137931 L15.0143941,1.88137931 L16.6565934,1.88137931 L16.6565934,5.29137931 L16.6565934,8.70137931 L15.9527937,8.70137931 L15.248994,8.70137931 L15.248994,15.5213793 L15.248994,22.3413793 L9.52475623,22.3413793 L3.8005185,22.3413793 L3.65975855,18.8843448 Z M11.7299954,13.9927586 L11.7299954,8.70137931 L8.65673657,8.70137931 C5.8180777,8.70137931 5.58347779,8.72489655 5.74769772,9.12468966 C6.24035753,10.2770345 6.5687974,12.0643448 6.68609735,14.322 C6.75647733,15.686 6.87377728,17.3792414 6.94415725,18.0612414 L7.0614572,19.2841379 L9.40745628,19.2841379 L11.7299954,19.2841379 L11.7299954,13.9927586 Z" id="Shape"></path>
                            <path d="M55.8347779,13.9927586 L55.8347779,5.64413793 L57.5942772,5.64413793 L59.3537765,5.64413793 L59.3537765,8.08993103 L59.3537765,10.5357241 L62.1220554,10.6297931 C65.0076343,10.7473793 65.8287339,10.9825517 66.7671336,12.0408276 C67.7055332,13.052069 68.104353,14.1808966 68.221653,15.9917241 C68.3858729,18.8843448 67.5882332,20.7892414 65.805274,21.8004828 C64.9137943,22.2943448 64.5853544,22.3413793 60.3625561,22.3413793 L55.8347779,22.3413793 L55.8347779,13.9927586 Z M64.1865346,18.508069 C64.6322744,17.9906897 64.7495744,17.5908966 64.7495744,16.5796552 C64.7495744,15.8976552 64.6791944,15.1451034 64.6088144,14.9334483 C64.3272945,14.227931 63.201215,13.8751724 61.2305758,13.8751724 L59.3537765,13.8751724 L59.3537765,16.6031724 L59.3537765,19.3311724 L61.4886357,19.2371034 C63.4827349,19.1665517 63.6469548,19.1195172 64.1865346,18.508069 Z" id="Shape"></path>
                            <path d="M21.7708714,17.6614483 C20.5274919,17.2616552 19.4483323,16.4150345 18.9322125,15.4273103 C18.4864727,14.5806897 18.4160927,14.1103448 18.4160927,11.499931 C18.4160927,8.70137931 18.4395527,8.51324138 19.0495125,7.59606897 C19.9879121,6.16151724 21.3955115,5.57358621 23.8118906,5.57358621 C25.5479299,5.57358621 25.8998297,5.64413793 27.0024493,6.27910345 C27.682789,6.65537931 28.2692888,7.07868966 28.3162088,7.19627586 C28.3396688,7.31386207 27.9643089,7.87827586 27.4481891,8.4662069 L26.5332495,9.52448276 L25.7825298,9.07765517 C24.7033702,8.44268966 22.9204109,8.44268966 22.3104512,9.05413793 C22.0758513,9.31282759 21.7943314,9.75965517 21.7004914,10.0653793 L21.5597315,10.5827586 L25.19603,10.5827586 L28.8557886,10.5827586 L28.8557886,11.9467586 C28.8323286,14.7923448 28.1285289,16.3444828 26.4394095,17.2146207 C25.36025,17.7555172 22.826571,17.9906897 21.7708714,17.6614483 Z M24.4922303,14.5571724 C24.8206702,14.3925517 25.17257,13.9692414 25.31333,13.6164828 L25.5479299,12.9344828 L23.5772907,12.9344828 C21.7239514,12.9344828 21.6301114,12.958 21.7474114,13.4048276 C21.9116313,13.9927586 22.8969509,14.8158621 23.4834507,14.8158621 C23.7180506,14.8158621 24.1637904,14.6982759 24.4922303,14.5571724 Z" id="Shape"></path>
                            <path d="M46.1927217,17.5673793 C43.6590427,16.6031724 43.1663829,15.6624828 43.1663829,11.6410345 C43.1663829,8.48972414 43.3306028,7.85475862 44.3863024,6.91406897 C46.1927217,5.26786207 49.7586403,5.0562069 51.8934995,6.46724138 C53.3714789,7.45496552 53.7233787,8.4662069 53.7233787,11.6645517 C53.7233787,15.0745517 53.3245589,16.1328276 51.6823595,17.0970345 C50.3920601,17.8495862 47.6003212,18.0847586 46.1927217,17.5673793 Z M49.8524803,14.227931 C50.3686001,13.734069 50.43898,13.4518621 50.43898,11.8291724 C50.43898,9.80668966 50.1340002,9.07765517 49.1017606,8.67786207 C48.3510409,8.39565517 47.0138214,8.79544828 46.6853815,9.40689655 C46.5446216,9.64206897 46.4507816,10.7473793 46.4507816,11.8526897 C46.4507816,13.7105517 46.4977016,13.8751724 47.0607414,14.322 C47.928761,15.004 49.1486805,14.9569655 49.8524803,14.227931 Z" id="Shape"></path>
                            <path d="M69.4415725,13.2166897 C69.4415725,8.866 69.4650325,8.48972414 69.9811523,7.52551724 C70.731872,5.99689655 71.6937316,5.52655172 73.9224307,5.55006897 C74.8842904,5.57358621 75.9165299,5.71468966 76.1980498,5.8557931 C76.6672497,6.11448276 76.7141696,6.06744828 76.7141696,5.43248276 C76.7141696,5.03268966 76.4795697,4.44475862 76.1511299,4.06848276 C75.6115501,3.43351724 75.4942501,3.41 73.0778711,3.33944828 L70.5676521,3.24537931 L70.708412,2.51634483 C70.778792,2.11655172 70.9664719,1.38751724 71.1072319,0.893655172 L71.3418318,0 L73.382851,0 C74.5089305,0 75.77577,0.0940689655 76.2215098,0.235172414 C77.5821893,0.611448276 78.7786488,1.62268966 79.4120686,2.89262069 L79.5600672,3.19527473 C79.8022447,3.69052242 79.9985683,4.54410834 79.9985683,5.09394538 L79.9985683,10.9825517 L79.9985683,17.8731034 L78.356369,17.8731034 L76.7141696,17.8731034 L76.7141696,13.545931 L76.7141696,9.21875862 L75.9869099,8.96006897 C74.8373704,8.56027586 73.7112908,8.65434483 73.195171,9.17172414 C72.7728912,9.59503448 72.7259712,9.9477931 72.7259712,13.7575862 L72.7259712,17.8731034 L71.0837719,17.8731034 L69.4415725,17.8731034 L69.4415725,13.2166897 Z" id="Shape"></path>
                            <path d="M31.9055874,14.5336552 C31.8821274,10.5357241 31.6709875,9.47744828 30.7795078,8.67786207 C30.404148,8.32510345 29.9584081,8.01937931 29.7941882,7.94882759 C29.5595883,7.87827586 29.5361283,7.61958621 29.7941882,6.63186207 C30.0287881,5.57358621 30.1460881,5.40896552 30.6387479,5.40896552 C31.3894676,5.40896552 32.820527,6.138 33.4539468,6.86703448 C34.5800263,8.08993103 34.8146262,8.91303448 34.9084662,11.9467586 L35.0023061,14.8158621 L36.3864456,14.8158621 L37.770585,14.8158621 L37.770585,10.23 L37.770585,5.64413793 L39.4127844,5.64413793 L41.0549837,5.64413793 L41.0549837,11.6410345 L41.0549837,17.637931 L36.4802856,17.637931 L31.9055874,17.637931 L31.9055874,14.5336552 Z" id="Shape"></path>
                        </g>
                    </g>
                </g>
            </g>
        </g>
    </g>
</svg>