<svg xmlns="http://www.w3.org/2000/svg" xmlns:xlink="http://www.w3.org/1999/xlink" preserveAspectRatio="xMidYMid" width="134" height="31" viewBox="0 0 134 31">
  <defs>
    <style>
      .cls-1 {
        fill: #fff;
      }

      .cls-1, .cls-2 {
        fill-rule: evenodd;
      }

      .cls-2 {
        fill: #25c0ec;
      }
    </style>
  </defs>
  <g>
    <path d="M133.568,21.255 C133.280,21.811 132.897,22.276 132.417,22.649 C131.938,23.022 131.382,23.304 130.751,23.494 C130.119,23.685 129.452,23.780 128.749,23.780 C127.981,23.780 127.278,23.685 126.639,23.494 C125.999,23.304 125.451,23.022 124.996,22.649 C124.540,22.276 124.188,21.811 123.941,21.255 C123.693,20.699 123.569,20.056 123.569,19.325 L123.569,16.467 C123.569,15.625 123.600,14.863 123.664,14.180 C123.727,13.497 123.830,12.878 123.973,12.322 C124.115,11.766 124.309,11.261 124.554,10.809 C124.800,10.356 125.105,9.931 125.469,9.534 C125.722,9.248 126.015,8.995 126.348,8.772 C126.680,8.550 127.030,8.343 127.397,8.153 C127.764,7.962 128.142,7.788 128.533,7.628 C128.924,7.470 129.311,7.319 129.694,7.176 C130.172,6.985 130.603,6.818 130.985,6.676 C131.368,6.532 131.791,6.350 132.254,6.128 L133.258,8.557 C132.955,8.685 132.692,8.796 132.469,8.891 C132.245,8.986 132.034,9.074 131.835,9.153 C131.635,9.233 131.444,9.308 131.261,9.380 C131.077,9.451 130.882,9.526 130.675,9.606 C130.196,9.796 129.737,9.991 129.299,10.189 C128.860,10.388 128.465,10.618 128.115,10.880 C127.764,11.143 127.472,11.448 127.241,11.797 C127.010,12.147 126.855,12.568 126.775,13.060 L126.871,13.131 C127.032,13.004 127.216,12.893 127.425,12.798 C127.633,12.703 127.850,12.619 128.075,12.548 C128.300,12.476 128.525,12.425 128.750,12.393 C128.974,12.361 129.183,12.345 129.376,12.345 C130.066,12.345 130.696,12.437 131.266,12.619 C131.836,12.802 132.322,13.076 132.723,13.441 C133.125,13.807 133.438,14.275 133.663,14.847 C133.887,15.418 134.000,16.085 134.000,16.848 L134.000,19.325 C134.000,20.056 133.856,20.699 133.568,21.255 ZM130.962,17.229 C130.962,16.482 130.749,15.947 130.324,15.621 C129.899,15.296 129.390,15.133 128.796,15.133 C128.540,15.133 128.280,15.177 128.015,15.264 C127.750,15.351 127.513,15.486 127.305,15.668 C127.096,15.851 126.928,16.078 126.800,16.347 C126.671,16.618 126.607,16.943 126.607,17.324 L126.607,18.944 C126.607,19.325 126.667,19.643 126.787,19.897 C126.908,20.151 127.064,20.361 127.257,20.528 C127.449,20.695 127.674,20.814 127.930,20.886 C128.187,20.958 128.460,20.993 128.748,20.993 C129.021,20.993 129.290,20.958 129.554,20.886 C129.819,20.814 130.055,20.695 130.264,20.528 C130.472,20.361 130.641,20.151 130.769,19.897 C130.897,19.643 130.962,19.325 130.962,18.944 L130.962,17.229 ZM121.523,26.168 C121.118,27.059 120.466,27.815 119.651,28.348 C118.832,28.888 117.848,29.203 116.790,29.203 L113.520,29.203 L112.743,26.240 L112.724,26.168 L116.793,26.168 C117.961,26.168 118.909,25.247 118.945,24.098 L118.945,23.952 L118.945,23.101 C118.889,23.131 118.832,23.160 118.776,23.187 C118.257,23.442 117.741,23.601 117.232,23.674 C116.663,23.754 116.174,23.793 115.758,23.793 C115.366,23.793 115.003,23.760 114.667,23.697 C113.822,23.538 113.147,23.177 112.645,22.614 C112.429,22.369 112.242,22.101 112.092,21.809 C111.856,21.352 111.707,20.835 111.637,20.262 C111.604,20.017 111.590,19.765 111.590,19.500 L111.590,16.042 L111.590,11.845 L114.361,11.845 L114.634,11.845 L114.634,19.109 C114.634,19.179 114.637,19.249 114.644,19.312 C114.681,19.875 114.884,20.282 115.183,20.524 C115.519,20.795 115.918,20.925 116.381,20.908 C116.750,20.908 117.132,20.865 117.532,20.775 C117.931,20.689 118.400,20.517 118.945,20.262 L118.945,19.315 L118.945,12.909 L118.945,11.845 L119.185,11.845 L121.986,11.845 L121.986,20.262 L121.986,23.893 C121.989,23.936 121.989,23.979 121.989,24.025 C121.989,24.071 121.989,24.115 121.986,24.158 C121.969,24.876 121.806,25.555 121.523,26.168 ZM109.782,15.727 C109.604,16.186 109.362,16.607 109.060,16.991 C108.668,17.484 108.176,17.886 107.589,18.195 C107.407,18.290 107.215,18.370 107.013,18.436 C106.558,18.585 106.046,18.660 105.482,18.660 L101.391,18.660 L101.391,23.661 L98.113,23.661 L98.113,18.660 L98.113,15.727 L98.113,7.246 L101.391,7.246 L105.482,7.246 C106.296,7.246 106.996,7.401 107.589,7.713 C108.139,8.002 108.602,8.372 108.979,8.819 C109.008,8.851 109.034,8.883 109.060,8.914 C109.448,9.407 109.736,9.960 109.920,10.571 C110.102,11.181 110.194,11.783 110.194,12.368 L110.194,13.537 C110.194,14.125 110.102,14.724 109.920,15.335 C109.880,15.469 109.834,15.598 109.782,15.727 ZM107.013,12.382 C107.013,11.743 106.817,11.216 106.426,10.800 C106.037,10.384 105.473,10.178 104.739,10.178 L101.391,10.178 L101.391,15.727 L104.739,15.727 C105.473,15.727 106.037,15.521 106.426,15.105 C106.817,14.690 107.013,14.162 107.013,13.523 L107.013,12.382 ZM94.082,22.720 C93.595,23.077 93.041,23.343 92.419,23.518 C91.797,23.693 91.159,23.780 90.505,23.780 C89.835,23.780 89.190,23.693 88.568,23.518 C87.945,23.343 87.391,23.077 86.904,22.720 C86.418,22.363 86.031,21.914 85.744,21.374 C85.457,20.834 85.314,20.199 85.314,19.468 L85.314,16.062 C85.314,15.331 85.461,14.696 85.756,14.156 C86.051,13.616 86.442,13.167 86.928,12.810 C87.415,12.453 87.973,12.183 88.603,12.000 C89.233,11.817 89.875,11.726 90.529,11.726 C91.231,11.726 91.897,11.817 92.527,12.000 C93.157,12.183 93.707,12.456 94.178,12.822 C94.648,13.187 95.019,13.644 95.290,14.192 C95.561,14.740 95.697,15.379 95.697,16.109 L95.697,19.468 C95.697,20.199 95.549,20.834 95.254,21.374 C94.959,21.914 94.568,22.363 94.082,22.720 ZM92.658,16.569 C92.658,16.187 92.595,15.869 92.467,15.613 C92.339,15.358 92.172,15.147 91.965,14.980 C91.757,14.812 91.530,14.692 91.283,14.621 C91.035,14.549 90.784,14.513 90.529,14.513 C90.274,14.513 90.015,14.549 89.752,14.621 C89.488,14.692 89.253,14.812 89.046,14.980 C88.838,15.147 88.671,15.358 88.543,15.613 C88.416,15.869 88.352,16.187 88.352,16.569 L88.352,18.913 C88.352,19.295 88.412,19.618 88.531,19.881 C88.651,20.144 88.814,20.360 89.022,20.527 C89.229,20.694 89.460,20.814 89.716,20.885 C89.971,20.958 90.242,20.993 90.529,20.993 C90.784,20.993 91.035,20.958 91.283,20.885 C91.530,20.814 91.757,20.694 91.965,20.527 C92.172,20.360 92.339,20.144 92.467,19.881 C92.595,19.618 92.658,19.295 92.658,18.913 L92.658,16.569 ZM79.979,14.442 L77.060,14.442 L77.060,17.032 C77.060,19.171 76.697,20.802 75.972,21.927 C75.246,23.052 74.046,23.733 72.371,23.971 L71.749,21.588 C72.211,21.446 72.594,21.275 72.897,21.076 C73.200,20.878 73.439,20.612 73.615,20.278 C73.790,19.945 73.914,19.520 73.986,19.004 C74.057,18.488 74.093,17.848 74.093,17.086 L74.093,11.869 L83.017,11.869 L83.017,23.661 L79.979,23.661 L79.979,14.442 ZM63.687,19.040 C63.687,19.389 63.747,19.691 63.866,19.945 C63.986,20.199 64.145,20.405 64.345,20.564 C64.544,20.723 64.771,20.842 65.026,20.921 C65.281,21.001 65.553,21.041 65.840,21.041 C66.175,21.041 66.589,20.989 67.084,20.886 C67.578,20.783 68.105,20.509 68.663,20.064 L70.338,22.136 C69.970,22.486 69.604,22.768 69.237,22.982 C68.870,23.196 68.503,23.363 68.137,23.482 C67.769,23.601 67.399,23.681 67.024,23.721 C66.649,23.760 66.270,23.780 65.888,23.780 C65.186,23.780 64.520,23.693 63.890,23.518 C63.260,23.343 62.706,23.077 62.227,22.720 C61.749,22.363 61.366,21.914 61.079,21.374 C60.792,20.834 60.648,20.191 60.648,19.444 L60.648,16.395 C60.648,15.665 60.780,15.010 61.043,14.430 C61.306,13.850 61.669,13.362 62.132,12.965 C62.594,12.568 63.128,12.266 63.735,12.059 C64.340,11.853 64.994,11.750 65.696,11.750 C66.430,11.750 67.108,11.853 67.730,12.059 C68.352,12.266 68.886,12.564 69.333,12.953 C69.779,13.342 70.130,13.822 70.385,14.394 C70.640,14.966 70.768,15.617 70.768,16.347 L70.768,18.658 L63.687,18.658 L63.687,19.040 ZM67.730,16.681 L67.730,16.445 C67.730,15.786 67.530,15.303 67.132,14.997 C66.733,14.690 66.262,14.537 65.720,14.537 C65.162,14.537 64.683,14.710 64.285,15.056 C63.886,15.401 63.687,15.896 63.687,16.540 L63.687,16.681 L67.730,16.681 ZM55.696,23.661 L45.361,23.661 L45.361,27.330 L42.370,27.330 L42.370,20.779 L43.590,20.779 C43.957,20.509 44.268,20.187 44.523,19.814 C44.778,19.441 44.990,18.984 45.158,18.444 C45.325,17.904 45.456,17.273 45.552,16.550 C45.648,15.828 45.720,14.974 45.768,13.989 L46.078,7.247 L57.227,7.247 C57.227,9.519 57.231,11.777 57.239,14.025 C57.247,16.273 57.251,18.531 57.251,20.802 L58.687,20.802 L58.687,27.330 L55.696,27.330 L55.696,23.661 ZM53.997,10.130 L49.021,10.130 L48.830,14.060 C48.798,14.760 48.758,15.423 48.710,16.050 C48.662,16.677 48.591,17.273 48.495,17.836 C48.399,18.400 48.264,18.932 48.088,19.432 C47.913,19.933 47.673,20.389 47.370,20.802 L53.997,20.802 L53.997,10.130 Z" class="cls-1"/>
    <path d="M30.063,18.593 C30.045,18.736 30.023,18.876 29.999,19.015 C29.745,20.502 29.290,21.922 28.664,23.241 C28.595,23.383 28.527,23.524 28.455,23.664 C27.970,24.612 27.395,25.507 26.740,26.337 C26.376,26.797 25.990,27.237 25.579,27.654 C25.501,27.734 25.424,27.811 25.344,27.889 C24.647,28.573 23.887,29.196 23.073,29.745 C22.900,29.671 22.724,29.599 22.546,29.528 C22.435,29.484 22.324,29.439 22.214,29.399 C21.969,29.305 21.724,29.216 21.474,29.133 C21.293,29.070 21.111,29.011 20.928,28.953 C20.742,28.894 20.555,28.839 20.366,28.785 C19.891,28.649 19.410,28.528 18.922,28.421 C18.828,28.401 18.733,28.381 18.639,28.362 C18.545,28.342 18.449,28.323 18.354,28.305 C18.256,28.286 18.158,28.268 18.060,28.250 C17.872,28.216 17.683,28.185 17.492,28.157 C17.300,28.127 17.108,28.100 16.914,28.076 C16.818,28.063 16.720,28.052 16.622,28.041 C16.507,28.028 16.392,28.015 16.278,28.003 C16.170,27.993 16.063,27.983 15.956,27.974 L15.954,27.974 C15.813,27.963 15.671,27.952 15.529,27.943 C15.482,27.939 15.436,27.935 15.390,27.934 C15.246,27.924 15.103,27.917 14.957,27.911 C14.624,27.896 14.288,27.889 13.951,27.889 L11.627,27.889 L11.627,23.337 C12.392,23.273 13.169,23.241 13.951,23.241 L13.953,23.241 C14.323,23.241 14.693,23.248 15.061,23.263 C15.159,23.267 15.257,23.271 15.355,23.276 C15.425,23.280 15.495,23.284 15.566,23.287 C15.580,23.287 15.595,23.289 15.610,23.289 C15.654,23.293 15.699,23.295 15.743,23.299 C15.923,23.310 16.100,23.322 16.278,23.337 C16.431,23.350 16.585,23.365 16.736,23.378 C16.760,23.382 16.784,23.383 16.808,23.385 C16.925,23.398 17.039,23.409 17.154,23.424 C17.263,23.435 17.374,23.450 17.483,23.463 C17.500,23.465 17.515,23.467 17.531,23.469 C17.552,23.470 17.570,23.474 17.591,23.476 C17.735,23.496 17.881,23.516 18.023,23.537 C18.053,23.541 18.082,23.546 18.112,23.550 C18.180,23.559 18.251,23.570 18.321,23.583 C18.327,23.583 18.332,23.583 18.338,23.585 C18.341,23.585 18.347,23.587 18.351,23.587 C18.393,23.594 18.437,23.600 18.480,23.607 C18.578,23.622 18.676,23.639 18.772,23.657 C18.890,23.677 19.007,23.698 19.124,23.720 C19.275,23.748 19.427,23.777 19.578,23.808 C19.628,23.819 19.680,23.829 19.730,23.840 C19.817,23.858 19.902,23.877 19.987,23.895 C20.303,23.966 20.618,24.040 20.928,24.121 C21.034,24.148 21.139,24.174 21.244,24.204 C21.380,24.239 21.515,24.276 21.649,24.315 C21.829,24.367 22.006,24.418 22.184,24.474 C22.569,24.089 22.925,23.677 23.255,23.241 C23.746,22.587 24.170,21.877 24.516,21.125 C24.886,20.327 25.167,19.479 25.346,18.593 C25.487,17.908 25.564,17.198 25.577,16.474 C25.579,16.405 25.579,16.337 25.579,16.269 C25.579,16.200 25.579,16.132 25.577,16.065 C25.564,15.341 25.487,14.631 25.346,13.943 C25.167,13.062 24.887,12.214 24.518,11.414 C24.172,10.661 23.746,9.954 23.255,9.298 C23.009,8.970 22.748,8.656 22.469,8.357 C22.374,8.257 22.282,8.161 22.186,8.065 L22.184,8.065 C22.054,8.105 21.923,8.144 21.792,8.183 C21.768,8.191 21.742,8.198 21.716,8.205 C21.694,8.211 21.672,8.217 21.649,8.224 C21.515,8.263 21.380,8.300 21.244,8.335 C21.139,8.364 21.034,8.392 20.928,8.418 C20.878,8.431 20.828,8.444 20.779,8.455 C20.771,8.459 20.764,8.460 20.754,8.462 C20.684,8.479 20.612,8.497 20.540,8.516 C20.522,8.519 20.501,8.525 20.483,8.529 C20.333,8.566 20.181,8.599 20.031,8.634 C19.882,8.667 19.730,8.699 19.578,8.730 C19.427,8.762 19.275,8.791 19.124,8.819 C19.007,8.841 18.890,8.861 18.772,8.882 C18.656,8.902 18.537,8.922 18.421,8.941 C18.302,8.961 18.184,8.976 18.066,8.996 C17.949,9.011 17.831,9.030 17.711,9.046 C17.594,9.063 17.476,9.078 17.359,9.092 L17.350,9.092 C17.232,9.107 17.115,9.120 16.997,9.133 C16.758,9.159 16.518,9.181 16.278,9.201 C16.124,9.214 15.971,9.225 15.815,9.235 C15.791,9.238 15.769,9.240 15.745,9.240 C15.669,9.246 15.592,9.251 15.514,9.253 C15.362,9.262 15.211,9.270 15.059,9.275 C14.978,9.279 14.896,9.283 14.815,9.283 C14.697,9.288 14.576,9.290 14.456,9.292 C14.288,9.295 14.121,9.298 13.953,9.298 L13.949,9.298 C13.779,9.298 13.609,9.295 13.439,9.292 C13.402,9.292 13.367,9.290 13.332,9.290 C13.297,9.290 13.262,9.288 13.226,9.288 C12.977,9.281 12.729,9.272 12.481,9.259 C12.415,9.257 12.350,9.253 12.285,9.248 C12.243,9.246 12.202,9.244 12.159,9.240 C11.986,9.229 11.814,9.216 11.642,9.203 C11.636,9.201 11.632,9.201 11.627,9.201 C11.427,9.185 11.229,9.166 11.031,9.146 C10.834,9.126 10.636,9.104 10.440,9.078 C10.244,9.054 10.048,9.028 9.852,8.998 C9.658,8.970 9.461,8.939 9.267,8.906 C9.112,8.880 8.959,8.852 8.803,8.823 C8.709,8.806 8.616,8.787 8.522,8.769 C8.359,8.738 8.198,8.703 8.038,8.669 C7.903,8.640 7.768,8.612 7.634,8.579 C7.631,8.579 7.629,8.577 7.625,8.577 C7.570,8.566 7.514,8.553 7.459,8.538 C7.327,8.508 7.196,8.475 7.065,8.442 C7.035,8.433 7.006,8.427 6.976,8.420 L6.976,28.953 C5.340,29.467 3.781,30.157 2.324,30.999 L2.324,6.767 C1.726,6.492 1.140,6.198 0.567,5.884 C0.375,5.781 0.186,5.673 -0.003,5.564 L-0.003,-0.000 C0.251,0.192 0.510,0.377 0.772,0.558 C0.866,0.623 0.963,0.687 1.059,0.752 C1.471,1.027 1.893,1.290 2.324,1.539 C3.130,2.005 3.968,2.424 4.831,2.792 C4.837,2.794 4.844,2.796 4.850,2.800 C4.855,2.802 4.863,2.805 4.868,2.807 C5.023,2.872 5.177,2.936 5.334,3.001 C5.341,3.003 5.349,3.005 5.358,3.010 C5.486,3.062 5.613,3.112 5.743,3.158 C5.765,3.168 5.789,3.175 5.811,3.184 C5.856,3.203 5.902,3.217 5.946,3.236 C5.957,3.240 5.967,3.243 5.978,3.247 C5.996,3.255 6.016,3.262 6.035,3.267 C6.166,3.315 6.298,3.362 6.431,3.406 C6.610,3.467 6.791,3.528 6.974,3.585 L6.978,3.585 C6.993,3.591 7.009,3.594 7.024,3.600 C7.194,3.653 7.365,3.702 7.538,3.753 C7.720,3.805 7.901,3.855 8.084,3.903 C8.248,3.946 8.413,3.986 8.578,4.025 C8.668,4.047 8.757,4.067 8.848,4.086 C8.960,4.112 9.073,4.136 9.188,4.160 C9.354,4.197 9.521,4.228 9.689,4.260 C9.815,4.284 9.940,4.306 10.068,4.326 C10.188,4.349 10.310,4.367 10.432,4.385 C10.532,4.400 10.630,4.413 10.730,4.426 C10.778,4.433 10.826,4.441 10.874,4.448 C10.891,4.450 10.909,4.454 10.928,4.456 C11.011,4.467 11.094,4.476 11.177,4.487 C11.227,4.493 11.277,4.498 11.327,4.504 C11.383,4.509 11.438,4.515 11.494,4.520 C11.529,4.524 11.564,4.526 11.599,4.530 C11.605,4.531 11.612,4.533 11.618,4.533 C11.642,4.535 11.666,4.539 11.690,4.541 C11.710,4.541 11.730,4.544 11.753,4.546 C11.856,4.557 11.962,4.566 12.067,4.574 C12.100,4.577 12.134,4.579 12.167,4.581 C12.187,4.583 12.206,4.585 12.226,4.587 C12.405,4.598 12.587,4.611 12.768,4.620 L12.781,4.620 C12.958,4.629 13.134,4.637 13.312,4.640 C13.354,4.642 13.397,4.644 13.439,4.644 C13.607,4.648 13.776,4.650 13.946,4.650 L13.953,4.650 C14.120,4.650 14.286,4.648 14.452,4.644 L14.458,4.644 C14.624,4.640 14.793,4.633 14.959,4.628 C15.103,4.622 15.248,4.615 15.392,4.605 C15.440,4.602 15.488,4.600 15.536,4.596 C15.675,4.587 15.815,4.576 15.954,4.565 L15.956,4.565 C16.063,4.555 16.170,4.546 16.278,4.535 C16.577,4.505 16.877,4.470 17.174,4.428 C17.193,4.426 17.211,4.424 17.230,4.420 C17.291,4.411 17.352,4.404 17.413,4.393 C17.557,4.373 17.700,4.350 17.842,4.326 C17.992,4.300 18.140,4.274 18.286,4.247 C18.310,4.243 18.332,4.237 18.356,4.234 C18.452,4.216 18.548,4.195 18.645,4.177 C18.833,4.138 19.022,4.097 19.209,4.053 C19.212,4.051 19.218,4.051 19.223,4.049 C19.405,4.007 19.586,3.962 19.765,3.918 C19.776,3.914 19.787,3.912 19.798,3.908 C19.939,3.872 20.077,3.833 20.216,3.794 C20.300,3.772 20.383,3.748 20.466,3.724 C20.496,3.715 20.526,3.705 20.556,3.696 C20.632,3.674 20.707,3.652 20.782,3.628 C20.873,3.600 20.963,3.572 21.054,3.544 C21.195,3.500 21.335,3.454 21.474,3.406 C21.655,3.347 21.834,3.282 22.012,3.216 C22.371,3.083 22.722,2.942 23.072,2.792 C23.073,2.792 23.073,2.794 23.075,2.794 C23.378,2.999 23.676,3.216 23.965,3.441 C23.965,3.441 23.965,3.441 23.967,3.441 C24.063,3.517 24.157,3.593 24.251,3.670 C24.251,3.670 24.251,3.670 24.253,3.670 C24.333,3.735 24.410,3.801 24.488,3.868 C24.595,3.958 24.703,4.051 24.808,4.147 L24.810,4.147 C24.854,4.188 24.897,4.226 24.939,4.265 C24.987,4.310 25.033,4.352 25.080,4.396 C25.168,4.479 25.257,4.565 25.344,4.650 C25.424,4.725 25.501,4.805 25.579,4.885 C25.990,5.302 26.376,5.742 26.740,6.202 L26.740,6.204 C27.395,7.034 27.970,7.924 28.455,8.873 C28.527,9.015 28.595,9.155 28.664,9.298 C29.290,10.617 29.745,12.036 29.999,13.524 C30.023,13.663 30.045,13.803 30.063,13.945 C30.174,14.703 30.230,15.479 30.230,16.269 C30.230,17.057 30.174,17.834 30.063,18.593 ZM13.953,13.945 C14.652,13.945 15.342,13.914 16.024,13.853 L16.026,13.853 C16.111,13.847 16.194,13.838 16.279,13.831 C17.764,13.683 19.207,13.397 20.595,12.984 L20.597,12.984 C20.631,13.144 20.662,13.302 20.688,13.463 C20.717,13.622 20.742,13.785 20.764,13.945 C20.806,14.230 20.840,14.518 20.864,14.808 C20.908,15.289 20.930,15.777 20.930,16.269 C20.930,16.762 20.908,17.250 20.864,17.730 L20.862,17.730 C20.838,18.020 20.804,18.309 20.762,18.593 C20.717,18.917 20.662,19.238 20.595,19.554 C19.207,19.142 17.763,18.856 16.278,18.708 C16.192,18.701 16.109,18.691 16.024,18.685 C15.342,18.625 14.652,18.593 13.953,18.593 L13.951,18.593 C13.167,18.593 12.391,18.632 11.627,18.708 L11.627,13.831 L11.629,13.831 C12.392,13.907 13.169,13.945 13.953,13.945 Z" class="cls-2"/>
  </g>
</svg>
