<svg xmlns="http://www.w3.org/2000/svg" width="132" height="31" viewBox="0 0 132 31">
    <g fill="none" fill-rule="nonzero">
        <path fill="#494849" d="M54.8 13.9V7.1H43.7l-.3 6.7c0 1-.1 1.8-.2 2.6-.1.7-.2 1.4-.4 1.9s-.4 1-.6 1.4c-.3.4-.6.7-.9 1H40v6.6h3v-3.7h10.3v3.7h3v-6.5h-1.4c-.1-2.4-.1-4.6-.1-6.9zm-3.2 6.8H45c.3-.4.5-.9.7-1.4.2-.5.3-1 .4-1.6.1-.6.2-1.2.2-1.8 0-.6.1-1.3.1-2l.2-3.9h5v10.7zm15.3-7.9c-.4-.4-1-.7-1.6-.9-.6-.2-1.3-.3-2-.3s-1.4.1-2 .3c-.6.2-1.1.5-1.6.9s-.8.9-1.1 1.5c-.3.6-.4 1.2-.4 2v3c0 .7.1 1.4.4 1.9.3.5.7 1 1.1 1.3.5.4 1 .6 1.7.8.6.2 1.3.3 2 .3.4 0 .8 0 1.1-.1.4 0 .7-.1 1.1-.2.4-.1.7-.3 1.1-.5.4-.2.7-.5 1.1-.8l-1.7-2.1c-.6.4-1.1.7-1.6.8-.5.1-.9.2-1.2.2-.3 0-.6 0-.8-.1-.3-.1-.5-.2-.7-.4-.2-.2-.4-.4-.5-.6-.1-.3-.2-.6-.2-.9v-.3h7.1v-2.3c0-.7-.1-1.4-.4-2-.1-.6-.4-1.1-.9-1.5zm-1.6 3.8h-4v-.1c0-.6.2-1.1.6-1.5.4-.3.9-.5 1.4-.5.5 0 1 .2 1.4.5.4.3.6.8.6 1.4v.2zm6.4.4c0 .8 0 1.4-.1 1.9s-.2.9-.4 1.3c-.2.3-.4.6-.7.8-.3.2-.7.4-1.1.5l.6 2.4c1.7-.2 2.9-.9 3.6-2 .7-1.1 1.1-2.8 1.1-4.9v-2.6h2.9v9.2h3V11.8h-8.9V17zm20.1-4.3c-.5-.4-1-.6-1.7-.8-.6-.2-1.3-.3-2-.3s-1.3.1-1.9.3c-.6.2-1.2.5-1.7.8-.5.4-.9.8-1.2 1.3-.3.5-.4 1.2-.4 1.9v3.4c0 .7.1 1.4.4 1.9.3.5.7 1 1.2 1.3.5.4 1 .6 1.7.8.6.2 1.3.3 1.9.3.7 0 1.3-.1 1.9-.3.6-.2 1.2-.4 1.7-.8s.9-.8 1.2-1.3c.3-.5.4-1.2.4-1.9v-3.4c0-.7-.1-1.4-.4-1.9-.3-.5-.7-.9-1.1-1.3zm-1.6 6.1c0 .4-.1.7-.2 1-.1.3-.3.5-.5.6-.2.2-.4.3-.7.4-.2.1-.5.1-.8.1-.3 0-.6 0-.8-.1-.3-.1-.5-.2-.7-.4-.2-.2-.4-.4-.5-.6-.1-.3-.2-.6-.2-1v-2.3c0-.4.1-.7.2-1 .1-.3.3-.5.5-.6.2-.2.4-.3.7-.4.3-.1.5-.1.8-.1.3 0 .5 0 .8.1.2.1.5.2.7.4.2.2.4.4.5.6.1.3.2.6.2 1v2.3zm41.1-4.1c-.2-.6-.5-1-.9-1.4-.4-.4-.9-.6-1.5-.8-.6-.2-1.2-.3-1.9-.3h-.6c-.2 0-.4.1-.7.2-.2.1-.4.2-.7.3l-.6.3-.1-.1c.1-.5.2-.9.5-1.3.2-.3.5-.7.9-.9.4-.3.7-.5 1.2-.7.4-.2.9-.4 1.4-.6.2-.1.4-.2.6-.2.2-.1.4-.1.6-.2l.6-.3c.2-.1.5-.2.8-.3l-1-2.4c-.5.2-.9.4-1.3.5-.4.1-.8.3-1.3.5-.4.1-.8.3-1.2.5-.4.2-.8.3-1.1.5-.4.2-.7.4-1 .6-.3.2-.6.5-.9.8-.4.4-.7.8-.9 1.3l-.6 1.5c-.1.6-.2 1.2-.3 1.9-.1.7-.1 1.4-.1 2.3v2.9c0 .7.1 1.4.4 1.9.2.6.6 1 1.1 1.4.5.4 1 .7 1.6.8.6.2 1.3.3 2.1.3.7 0 1.4-.1 2-.3.6-.2 1.2-.5 1.7-.8.5-.4.9-.8 1.2-1.4.3-.6.4-1.2.4-1.9v-2.5c-.1-.8-.2-1.5-.4-2.1zm-2.7 4.1c0 .4-.1.7-.2 1-.1.3-.3.5-.5.6-.2.2-.4.3-.7.4-.3.1-.5.1-.8.1-.3 0-.6 0-.8-.1-.3-.1-.5-.2-.7-.4-.2-.2-.3-.4-.5-.6-.1-.3-.2-.6-.2-1v-1.6c0-.4.1-.7.2-1 .1-.3.3-.5.5-.7.2-.2.4-.3.7-.4.3-.1.5-.1.8-.1.6 0 1.1.2 1.5.5.4.3.6.9.6 1.6v1.7h.1zm-22-10s0-.1 0 0c-.5-.5-.9-.9-1.5-1.2-.6-.3-1.3-.5-2.1-.5h-7.4v16.5h3.3v-5h4.1c.6 0 1.1-.1 1.5-.2.2-.1.4-.1.6-.2.6-.3 1.1-.7 1.5-1.2.3-.4.5-.8.7-1.3.1-.1.1-.3.1-.4.2-.6.3-1.2.3-1.8v-1.2c0-.6-.1-1.2-.3-1.8-.1-.6-.4-1.2-.8-1.7zm-2 4.6c0 .6-.2 1.2-.6 1.6-.4.4-1 .6-1.7.6H99v-5.5h3.3c.7 0 1.3.2 1.7.6.4.4.6.9.6 1.6v1.1zm15-1.7h-3v8.4c-.5.3-1 .4-1.4.5-.4.1-.8.1-1.2.1-.5 0-.9-.1-1.2-.4-.3-.2-.5-.6-.5-1.2v-7.5h-3v8.5c.1.6.2 1.1.5 1.5.1.3.3.6.6.8.5.6 1.2.9 2 1.1.3.1.7.1 1.1.1.4 0 .9 0 1.5-.1.5-.1 1-.2 1.5-.5.1 0 .1-.1.2-.1v1c0 1.1-1 2.1-2.2 2.1h-4.1v.1l.8 3h3.3c1.1 0 2-.3 2.9-.9.8-.5 1.5-1.3 1.9-2.2.3-.6.4-1.3.5-2V11.7h-.2z"/>
        <path fill="#519DC7" d="M30.5 14c0-.1-.9-.5-1-.6-.3-1.5-.7-2.9-1.3-4.2-.1-.1-.1-.3-.2-.4-.5-.9-1.1-1.8-1.7-2.7-.4-.5-.8-.9-1.2-1.3l-.2-.2-.3-.3-.1-.1-.1-.1-.3-.3c-.1-.1-.2-.1-.2-.2-.1-.1-.2-.2-.3-.2l-.9-.6c-.3.1-.7.3-1.1.4-.2.1-.4.1-.5.2-.1 0-.3.1-.4.1-.1 0-.2.1-.3.1-.1 0-.2 0-.2.1h-.1c-.1 0-.2 0-.2.1-.1 0-.3.1-.4.1-.2 0-.4.1-.5.1-.2 0-.4.1-.6.1-.1 0-.2 0-.3.1H18c-.1 0-.3.1-.4.1-.1 0-.3 0-.4.1H17h-.1c-.3 0-.6.1-.9.1H12.2h-.5-.1-.7-.5c-.1 0-.2 0-.4-.1-.1 0-.3 0-.4-.1-.2 0-.3-.1-.5-.1-.1 0-.2 0-.3-.1-.1 0-.2 0-.3-.1-.2 0-.3-.1-.5-.1s-.4-.1-.5-.1c-.2-.1-.3-.1-.5-.2s-.4-.1-.5-.2c-.1 0-.3-.1-.4-.1H6s-.1 0-.1-.1h-.1c-.1 0-.3-.1-.4-.1-.2-.1-.3-.1-.5-.2-.9-.4-1.7-.8-2.5-1.3-.4-.2-.9-.5-1.3-.8C1 .7.9.7.8.6.5.4.3.2 0 0v5.6l.6.3 1.8.9V31c1.5-.8 3-1.5 4.7-2V8.5h.1c.1 0 .3.1.4.1h.2c.1 0 .3.1.4.1.2 0 .3.1.5.1.1 0 .2 0 .3.1.2 0 .3.1.5.1s.4.1.6.1c.2 0 .4.1.6.1.2 0 .4 0 .6.1.2 0 .4 0 .6.1h4.6c.2 0 .5 0 .7-.1H18.4c.1 0 .2 0 .4-.1.1 0 .2 0 .4-.1.1 0 .2 0 .4-.1.2 0 .3-.1.5-.1s.3-.1.5-.1c.1 0 .3-.1.5-.1h.1c.1 0 .1 0 .2-.1h.1c.1 0 .2-.1.3-.1.1 0 .3-.1.4-.1h.2c.1 0 .3-.1.4-.1l.3.3c.3.3.5.6.8.9.5.7.9 1.4 1.3 2.1.4.8.6 1.6.8 2.5.1.7.2 1.4.2 2.1v.4c0 .7-.1 1.4-.2 2.1-.2.9-.5 1.7-.8 2.5-.3.8-.8 1.5-1.3 2.1-.3.4-.7.8-1.1 1.2-.2-.1-.4-.1-.5-.2-.1 0-.3-.1-.4-.1-.1 0-.2-.1-.3-.1-.3-.1-.6-.2-.9-.2-.1 0-.2 0-.3-.1h-.2c-.2 0-.3-.1-.5-.1-.1 0-.2 0-.4-.1H18.6c-.1 0-.3 0-.4-.1h-.7H14.7c-.8 0-1.6 0-2.3.1v4.6h5.1c.2 0 .4.1.6.1.2 0 .4.1.6.1.1 0 .2 0 .3.1.1 0 .2 0 .3.1.1 0 .2 0 .3.1.5.1 1 .2 1.4.4.2.1.4.1.6.2.2.1.4.1.5.2.2.1.5.2.7.3.1 0 .2.1.3.1.2.1.4.1.5.2.8-.5 1.6-1.2 2.3-1.9l.2-.2c.4-.4.8-.9 1.2-1.3.7-.8 1.2-1.7 1.7-2.7.1-.1.1-.3.2-.4.6-1.3 1.1-2.7 1.3-4.2 0-.1 0-.3.1-.4.1-.8.2-1.5.2-2.3 0-1.7-.2-1.9-.3-2.7zm-17 4.5c.7 0 1.4 0 2.1.1h.3c1.5.1 2.9.4 4.3.8.1-.3.1-.6.2-1 0-.3.1-.6.1-.9 0-.5.1-1 .1-1.5s0-1-.1-1.5c0-.3-.1-.6-.1-.9 0-.2 0-.3-.1-.5 0-.2-.1-.3-.1-.5-1.4.4-2.8.7-4.3.8h-.3c-.7.1-1.4.1-2.1.1-.8 0-1.6 0-2.3-.1v4.9c.7.2 1.5.2 2.3.2z"/>
    </g>
</svg>
