<svg xmlns="http://www.w3.org/2000/svg" width="30" height="31" viewBox="0 0 30 31">
    <g fill="#519DC7" fill-rule="evenodd">
        <path d="M0 0s10.46 7.988 22.913 2.496c0 0 7.471 5.492 6.973 13.979-.225 3.837-.996 8.487-6.973 12.98 0 0-5.977-2.496-11.457-1.498v-4.992s5.978 0 10.46 1.498c0 0 3.087-2.55 3.087-7.881 0-2.953-.585-5.55-3.086-8.594 0 0-6.476 3.494-14.944.499v20.469s-2.49.499-4.98 1.997V6.49S.497 5.99 0 5.492V0z"/>
        <path d="M11.763 13.897s5.08.801 8.822-.535c0 0 .802 3.207 0 6.414 0 0-2.674-1.07-8.822-.802v-5.077z"/>
    </g>
</svg>
