<?xml version="1.0" encoding="UTF-8" standalone="no"?>
<!-- Generator: Adobe Illustrator 19.0.0, SVG Export Plug-In . SVG Version: 6.00 Build 0)  -->

<svg
   xmlns:dc="http://purl.org/dc/elements/1.1/"
   xmlns:cc="http://creativecommons.org/ns#"
   xmlns:rdf="http://www.w3.org/1999/02/22-rdf-syntax-ns#"
   xmlns:svg="http://www.w3.org/2000/svg"
   xmlns="http://www.w3.org/2000/svg"
   xmlns:sodipodi="http://sodipodi.sourceforge.net/DTD/sodipodi-0.dtd"
   xmlns:inkscape="http://www.inkscape.org/namespaces/inkscape"
   version="1.1"
   id="Layer_1"
   x="0px"
   y="0px"
   viewBox="0 0 15.2 14"
   style="enable-background:new 0 0 15.2 14;"
   xml:space="preserve"
   sodipodi:docname="star_empty.svg"
   inkscape:version="0.92.1 r15371"><metadata
     id="metadata353"><rdf:RDF><cc:Work
         rdf:about=""><dc:format>image/svg+xml</dc:format><dc:type
           rdf:resource="http://purl.org/dc/dcmitype/StillImage" /></cc:Work></rdf:RDF></metadata><defs
     id="defs351" /><sodipodi:namedview
     pagecolor="#ffffff"
     bordercolor="#666666"
     borderopacity="1"
     objecttolerance="10"
     gridtolerance="10"
     guidetolerance="10"
     inkscape:pageopacity="0"
     inkscape:pageshadow="2"
     inkscape:window-width="1524"
     inkscape:window-height="1769"
     id="namedview349"
     showgrid="false"
     inkscape:zoom="1.489975"
     inkscape:cx="40.968296"
     inkscape:cy="-167.50683"
     inkscape:window-x="0"
     inkscape:window-y="0"
     inkscape:window-maximized="0"
     inkscape:current-layer="Layer_1" /><style
     type="text/css"
     id="style2">
	.st0{fill:#575757;}
	.st1{fill:none;stroke:#575757;stroke-miterlimit:10;}
	.st2{fill-rule:evenodd;clip-rule:evenodd;fill:#575757;}
	.st3{fill:#494849;}
	.st4{fill:#70BEE9;}
	.st5{fill:#919090;}
	.st6{fill:#F6E037;}
	.st7{fill:#5B9F51;}
	.st8{fill-rule:evenodd;clip-rule:evenodd;fill:none;stroke:#575757;stroke-miterlimit:10;}
	.st9{fill:#71B452;}
	.st10{fill:none;stroke:#71B452;stroke-miterlimit:10;}
	.st11{fill-rule:evenodd;clip-rule:evenodd;fill:none;stroke:#D35F61;stroke-miterlimit:10;}
	.st12{fill:none;}
	.st13{fill:#D35F61;}
</style><path
     class="st5"
     d="M14.1,4.4l-3.7-0.3c-0.1,0-0.1-0.1-0.2-0.1L8.8,0.7C8.6,0.3,8.1,0,7.6,0s-1,0.3-1.2,0.7L5,4.1  c0,0.1-0.1,0.1-0.2,0.1L1.2,4.5c-0.5,0-0.9,0.3-1.1,0.8c-0.2,0.5,0,1,0.4,1.3l2.9,2.3c0.1,0,0.1,0.1,0.1,0.2l-0.9,3.5  c-0.1,0.4,0,0.7,0.2,1c0.2,0.3,0.6,0.5,1,0.5c0.2,0,0.5-0.1,0.7-0.2l3.1-1.9c0.1,0,0.1,0,0.2,0l3.2,1.9c0.2,0.1,0.4,0.2,0.7,0.2  c0.4,0,0.7-0.2,0.9-0.4c0.2-0.3,0.3-0.7,0.2-1l-0.9-3.5c0-0.1,0-0.2,0.1-0.2l2.9-2.3c0.4-0.3,0.5-0.8,0.4-1.3  C15,4.8,14.6,4.5,14.1,4.4L14.1,4.4z M14.3,6l-2.9,2.3c-0.3,0.2-0.4,0.6-0.3,0.9l0.9,3.5c0,0.2,0,0.3-0.1,0.4  c-0.1,0.1-0.2,0.2-0.3,0.2c-0.1,0-0.2,0-0.2-0.1l-3.2-1.9c-0.2-0.1-0.3-0.1-0.5-0.1c-0.2,0-0.4,0-0.5,0.1l-3.1,1.9  c-0.2,0.1-0.5,0.1-0.6-0.1c-0.1-0.1-0.1-0.2-0.1-0.4l0.9-3.5c0.1-0.3,0-0.7-0.3-0.9L0.9,6C0.7,5.8,0.8,5.6,0.8,5.5  c0-0.1,0.1-0.3,0.4-0.3l3.7-0.3c0.4,0,0.7-0.2,0.8-0.6L7.2,1c0.1-0.3,0.4-0.3,0.4-0.3s0.3,0,0.4,0.3l1.4,3.3  c0.1,0.3,0.5,0.5,0.8,0.6L14,5.2c0.3,0,0.4,0.2,0.4,0.3C14.5,5.6,14.5,5.8,14.3,6L14.3,6z M14.3,6"
     id="path170" /></svg>