<svg xmlns="http://www.w3.org/2000/svg" width="49" height="49" viewBox="0 0 49 49">
    <path fill="#1EAEDD" fill-rule="nonzero" d="M48.1 1.761a2.836 2.836 0 0 0-4.011 0l-15.44 15.44-2.782-2.782a2.374 2.374 0 0 0-3.358 0l-1.673 1.673L8.68 18.99l-6.474 1.544a1.662 1.662 0 0 0-.953 2.601 119.528 119.528 0 0 0 25.473 25.474 1.662 1.662 0 0 0 2.602-.954l1.933-8.11 2.507-10.518 1.674-1.674a2.374 2.374 0 0 0 0-3.357l-2.783-2.783L48.1 5.772a2.836 2.836 0 0 0 0-4.01zM26.684 44.415a116.416 116.416 0 0 1-3.978-3.206l2.19-6.17-4.328 4.326a116.239 116.239 0 0 1-4.557-4.254l2.174-3.435-3.445 2.163a116.111 116.111 0 0 1-3.963-4.23l4.344-4.344-6.208 2.202a116.508 116.508 0 0 1-3.467-4.29l14.8-3.527 9.965 9.966-3.527 14.8z"/>
</svg>
