<svg xmlns="http://www.w3.org/2000/svg" width="51" height="45" viewBox="0 0 51 45">
    <path fill="#1EAEDD" fill-rule="nonzero" d="M20.547 23.616l-5.01 4.967c-3.348-.075-7.982 1.117-9.982 7.703C4.025 39.772 0 39.596 0 39.596c8.359 9.323 18.21 4.039 20.46 1.748 1.976-2.014 2.26-4.476 2.05-6.445l4.661-4.622-6.624-6.66zm-2.31 15.522c-1.566 1.46-8.564 4.716-12.682 1.56 0 0 1.433-1.125 2.519-3.382 2.592-6.922 9.052-5.898 9.052-5.898l2.221 2.206c.023.02 1.66 2.932-1.11 5.514zm31.3-37.686a4.738 4.738 0 0 0-6.665 0l-20.06 19.916 6.624 6.66 20.101-19.96a4.653 4.653 0 0 0 0-6.616z"/>
</svg>
