<svg xmlns="http://www.w3.org/2000/svg" width="54" height="58" viewBox="0 0 54 58">
    <path fill="#1EAEDD" fill-rule="nonzero" d="M48.432 32.735c-.98-7.233-4.982-12.505-9.912-12.505H15.485c-4.933 0-8.933 5.27-9.915 12.503C2.012 34.527.168 38.246.168 42.554c0 3.317 1.09 6.28 3.208 8.29v6.838h8.538v-4.157H42.09v4.157h8.537v-6.837c2.117-2.011 3.21-4.974 3.21-8.29-.003-4.308-1.847-8.028-5.405-9.82zm-32.949-9.952h23.034c3.245 0 6.085 3.834 7.142 9.022a12.711 12.711 0 0 0-1.667-.183c0-.012.004-.021.004-.03 0-3.012-2.456-5.461-5.48-5.461-3.023 0-5.479 2.45-5.479 5.46H10.714c-.843 0-1.634.073-2.379.212 1.06-5.188 3.901-9.02 7.148-9.02zm26.806 8.81H34.75a3.768 3.768 0 0 1 3.772-3.758 3.767 3.767 0 0 1 3.767 3.758zM9.437 46.121a3.57 3.57 0 0 1-3.576-3.565 3.573 3.573 0 0 1 3.576-3.565 3.573 3.573 0 0 1 3.579 3.565 3.568 3.568 0 0 1-3.58 3.565zm27.95-.633H16.611a.853.853 0 0 1-.855-.852c0-.467.382-.847.855-.847h20.774c.473 0 .854.38.854.847 0 .47-.381.852-.854.852zm0-3.12H16.611a.85.85 0 0 1 0-1.7h20.774c.473 0 .854.38.854.848 0 .47-.381.852-.854.852zm7.176 3.753a3.571 3.571 0 0 1-3.577-3.565 3.573 3.573 0 0 1 3.577-3.565 3.573 3.573 0 0 1 3.578 3.565 3.57 3.57 0 0 1-3.578 3.565zm-4.115-35.573c1.225 1.953 3.384 3.262 5.867 3.264 2.719 0 5.045-1.574 6.182-3.845l-4.613-.002c-1.634.004-2.958-1.365-2.958-3.06.002-1.687 1.325-3.056 2.956-3.06h4.611C51.365 1.575 49.033.002 46.311 0c-2.479-.002-4.638 1.311-5.865 3.269H11.271c-1.022-1.173-2.51-1.925-4.188-1.925-3.085-.002-5.586 2.488-5.584 5.564 0 3.069 2.499 5.558 5.58 5.562 1.678 0 3.166-.76 4.192-1.922h29.177zM5.614 9.446L4.144 6.91l1.472-2.534 2.935-.004 1.47 2.538-1.468 2.536H5.614z"/>
</svg>
