<svg xmlns="http://www.w3.org/2000/svg" width="55" height="42" viewBox="0 0 55 42">
    <path fill="#1EAEDD" fill-rule="nonzero" d="M53.862 32.03H18.38c-.53 0-.96-.431-.96-.96V8.858c0-.529.43-.959.96-.959h35.483c.53 0 .96.43.96.96v22.21c.001.53-.43.96-.96.96zm-9.833 7.01h-3.594v-4.318h-8.628v4.318h-3.595a1.347 1.347 0 1 0 0 2.692H44.03a1.347 1.347 0 1 0 0-2.692zM21.527 5.206h-3.148c-.197 0-.388.02-.577.05-.11-.029-.225-.05-.345-.05H4.07a1.347 1.347 0 1 0 0 2.693h10.786a3.625 3.625 0 0 0-.133.959v2.506H4.07a1.347 1.347 0 1 0 0 2.693h10.653v3.465H4.07a1.347 1.347 0 1 0 0 2.693h10.653V31.07a3.659 3.659 0 0 0 3.657 3.651h3.148v5.665c0 .743-.604 1.346-1.348 1.346H1.348A1.347 1.347 0 0 1 0 40.386V1.437C0 .694.603.091 1.348.091h18.83c.745 0 1.349.603 1.349 1.346v3.77zM8.685 31.786c0 1.147.93 2.076 2.078 2.076a2.077 2.077 0 0 0 0-4.15c-1.147 0-2.078.928-2.078 2.074z"/>
</svg>
