<svg xmlns="http://www.w3.org/2000/svg" width="48" height="45" viewBox="0 0 48 45">
    <path fill="#1EAEDD" fill-rule="nonzero" d="M46.927 7.628l-5.24-6.604a2.603 2.603 0 0 0-2.039-.987H12.572c-.794 0-1.545.363-2.04.987L5.293 7.628c-.547.69-.995 1.976-.995 2.947v4.836a3.38 3.38 0 0 1 1.754-1.403 3.65 3.65 0 0 1 .493-1.577 3.632 3.632 0 0 1 2.232-1.694c.338-.09.649-.13.959-.13 1.249 0 2.381.639 3.044 1.642a3.385 3.385 0 0 1 2.295.409l2.902-.758a4.383 4.383 0 0 1 1.111-.144 4.414 4.414 0 0 1 4.267 3.317l5.687 21.96a4.424 4.424 0 0 1-.465 3.36 4.386 4.386 0 0 1-2.694 2.046l-2.538.663h21.317c1.8 0 3.26-1.467 3.26-3.276v-29.34c0-.882-.448-2.169-.995-2.859zM7.005 7.572L8.74 5.385h11.837l1.168-1.93H10.271l1.28-1.614c.25-.314.622-.494 1.02-.494h27.077c.4 0 .771.18 1.02.494l1.28 1.614H30.272l.652 1.93H43.48l1.735 2.187H7.005zm.53 8.068l-.732.191a1.466 1.466 0 0 0-1.044 1.787l.007.029a1.458 1.458 0 0 0 1.779 1.049l6.205-1.622a1.466 1.466 0 0 0 1.044-1.787l-.007-.029a1.458 1.458 0 0 0-1.778-1.049l-.732.191a.731.731 0 0 1-.892-.526l-.007-.024a1.698 1.698 0 0 0-2.071-1.222l-.038.01a1.708 1.708 0 0 0-1.217 2.082l.007.023a.736.736 0 0 1-.524.897zm2-2.052a.74.74 0 0 1 .37 1.432.74.74 0 0 1-.37-1.432zm9.146 22.586a.493.493 0 0 1-.352.601l-9.028 2.36a.49.49 0 0 1-.6-.353l-.123-.478a.493.493 0 0 1 .352-.601l9.028-2.36a.49.49 0 0 1 .599.353l.124.478zm1.1-9.463l.124.477a.493.493 0 0 1-.351.602L7.199 31.02a.49.49 0 0 1-.598-.354l-.124-.478a.493.493 0 0 1 .351-.601l12.355-3.23a.49.49 0 0 1 .599.354zm-1.34-3.218l-12.354 3.23a.49.49 0 0 1-.599-.354l-.124-.477a.493.493 0 0 1 .352-.602l12.354-3.229a.49.49 0 0 1 .6.353l.123.478a.493.493 0 0 1-.352.601zm-.274 8.737l-9.979 2.608a.49.49 0 0 1-.599-.353l-.123-.477a.493.493 0 0 1 .351-.602l9.979-2.608a.49.49 0 0 1 .599.353l.123.478a.493.493 0 0 1-.351.601zm8.982 5.298l-5.687-21.96a2.454 2.454 0 0 0-2.994-1.766l-2.897.757c.068.142.125.292.166.45.346 1.338-.437 2.68-1.74 3.02l-6.114 1.598c-1.248.326-2.592-.32-3.011-1.545a2.552 2.552 0 0 1-.134-.692l-2.9.759A2.467 2.467 0 0 0 .08 21.156l5.686 21.961a2.454 2.454 0 0 0 2.994 1.766l16.63-4.347a2.467 2.467 0 0 0 1.759-3.008zM8.142 42.496L3.197 23.4l16.631-4.347 4.945 19.096-16.631 4.347z"/>
</svg>
