<svg xmlns="http://www.w3.org/2000/svg" width="42" height="48" viewBox="0 0 42 48">
    <g fill="#1EAEDD" fill-rule="nonzero">
        <path d="M33.232 32.234c-.606 0-1.194.073-1.76.205l-2.188-4.891a1.507 1.507 0 0 0-2.448-.452l-3.046 3.068a1.53 1.53 0 0 0 0 2.154l3.14 3.162a7.83 7.83 0 0 0-1.478 4.774c.093 4.072 3.323 7.428 7.363 7.641 4.479.237 8.198-3.365 8.198-7.825 0-4.32-3.49-7.836-7.781-7.836zm1.388 7.975a1.71 1.71 0 0 1-.054.27 1.367 1.367 0 0 1-.175.371 1.553 1.553 0 0 1-.173.214 1.609 1.609 0 0 1-.212.174 1.506 1.506 0 0 1-.37.176 1.627 1.627 0 0 1-.267.054 1.355 1.355 0 0 1-.542-.054 1.337 1.337 0 0 1-.37-.176 1.313 1.313 0 0 1-.385-.388 1.395 1.395 0 0 1-.174-.371 1.373 1.373 0 0 1 .045-.946 1.5 1.5 0 0 1 .21-.353 1.626 1.626 0 0 1 .194-.196 1.35 1.35 0 0 1 .228-.152 1.511 1.511 0 0 1 .252-.105 1.516 1.516 0 0 1 .268-.054 1.344 1.344 0 0 1 .542.054 1.622 1.622 0 0 1 .252.105 1.45 1.45 0 0 1 .329.245 1.612 1.612 0 0 1 .173.213 1.429 1.429 0 0 1 .235.78c0 .046-.001.093-.006.139zM18.303 14.095L4.903.6A2.019 2.019 0 0 0 3.362.002a2.107 2.107 0 0 0-1.4.658A6.905 6.905 0 0 0 .007 5.5c0 1.85.716 3.589 2.015 4.897l9.977 10.047c.59.594 1.548.594 2.139 0l4.166-4.196a1.53 1.53 0 0 0 0-2.153z"/>
        <path d="M41.994 5.5c0-1.851-.715-3.59-2.015-4.899a2.03 2.03 0 0 0-2.882 0L14.846 23.008l-.02.022a1.436 1.436 0 0 0-.18.236l-.032.052a1.352 1.352 0 0 0-.04.078l-.014.028-4.048 9.051a7.722 7.722 0 0 0-1.915-.24c-4.291 0-7.782 3.515-7.782 7.836 0 4.32 3.49 7.836 7.782 7.836 4.29 0 7.782-3.515 7.782-7.836 0-1.67-.523-3.217-1.41-4.49l25.01-25.184A6.905 6.905 0 0 0 41.994 5.5zM10.04 40.19a1.71 1.71 0 0 1-.054.27 1.649 1.649 0 0 1-.105.253 1.347 1.347 0 0 1-.455.506 1.38 1.38 0 0 1-.241.13 1.622 1.622 0 0 1-.261.08 1.355 1.355 0 0 1-.545 0 1.627 1.627 0 0 1-.261-.08 1.452 1.452 0 0 1-.545-.407 1.524 1.524 0 0 1-.151-.23 1.5 1.5 0 0 1-.105-.252 1.657 1.657 0 0 1-.054-.27 1.729 1.729 0 0 1 0-.277 1.71 1.71 0 0 1 .054-.27 1.649 1.649 0 0 1 .105-.252 1.347 1.347 0 0 1 .455-.507 1.48 1.48 0 0 1 .37-.176 1.627 1.627 0 0 1 .267-.054 1.353 1.353 0 0 1 .671.1 1.48 1.48 0 0 1 .453.304 1.612 1.612 0 0 1 .173.214 1.395 1.395 0 0 1 .128.242 1.649 1.649 0 0 1 .08.263c.009.045.016.091.02.136a1.728 1.728 0 0 1 0 .277z"/>
    </g>
</svg>
