<svg xmlns="http://www.w3.org/2000/svg" width="43" height="48" viewBox="0 0 43 48">
    <g fill="#1EAEDD" fill-rule="nonzero">
        <path d="M23.061 26.282h17.118V48H23.061zM2.822 26.282H19.94V48H2.822zM34.845 8.853c.463-.85.727-1.826.727-2.861 0-3.304-2.68-5.992-5.975-5.992-2.436 0-4.93 1.263-6.84 3.464a12.21 12.21 0 0 0-1.257 1.74 12.21 12.21 0 0 0-1.258-1.74C18.332 1.263 15.84 0 13.402 0c-3.294 0-5.974 2.688-5.974 5.992 0 1.035.264 2.01.727 2.861H.019v14.299h19.92V8.853h3.122v14.299h19.92V8.853h-8.136zm-21.442 0a2.86 2.86 0 0 1-2.853-2.861 2.86 2.86 0 0 1 2.853-2.862c2.832 0 5.525 2.906 6.308 5.723h-6.308zm16.194 0H23.29c.783-2.817 3.476-5.723 6.308-5.723a2.86 2.86 0 0 1 2.853 2.862 2.86 2.86 0 0 1-2.853 2.861z"/>
    </g>
</svg>
