<svg xmlns="http://www.w3.org/2000/svg" width="59" height="48" viewBox="0 0 59 48">
    <g fill="#1EAEDD" fill-rule="nonzero">
        <path d="M23.874 42.356c0-1.196-.983-2.165-2.197-2.165H5.083c-1.213 0-2.197.97-2.197 2.165 0 .377.098.731.27 1.04H0v4.49h26.76v-4.49h-3.155a2.13 2.13 0 0 0 .27-1.04zM21.05 5.334l14.021 8.774a2.42 2.42 0 0 0 3.115-.841l.672-1.044a2.346 2.346 0 0 0-.74-3.266L24.486.426a2.422 2.422 0 0 0-3.314.729l-.673 1.043a2.343 2.343 0 0 0 .553 3.136zM58.935 38.852l-.01-.209-.017-.197c-.01-.135-.029-.255-.045-.378a6.005 6.005 0 0 0-.323-1.29c-.284-.754-.686-1.324-1.18-1.752-.123-.107-.255-.202-.385-.298l-.392-.288c-.26-.194-.525-.38-.788-.568-.263-.19-.529-.373-.795-.557a100.821 100.821 0 0 0-2.418-1.622l-.815-.527-.82-.52a154.813 154.813 0 0 0-3.313-2.024l-1.673-.986-1.684-.97-1.693-.954-1.702-.942-1.71-.93-1.717-.916c-.575-.303-1.149-.606-1.727-.903-.578-.298-1.154-.598-1.736-.89l-.526.817-2.653-1.232 2.966-4.603-14.021-8.774-7.294 11.319 14.021 8.774 2.966-4.603 2.26 1.843-.526.817c.515.394 1.036.78 1.555 1.169.519.39 1.041.772 1.564 1.156l1.572 1.143 1.581 1.13 1.589 1.116 1.597 1.104 1.606 1.09 1.618 1.073a155.98 155.98 0 0 0 3.268 2.094l.825.51.83.503a105.16 105.16 0 0 0 2.518 1.467c.283.159.565.318.85.471.286.155.57.312.858.462l.43.226c.144.076.287.153.438.217.603.259 1.298.375 2.11.308a6.242 6.242 0 0 0 1.323-.26c.12-.038.239-.072.366-.122l.189-.068.196-.08c.261-.108.541-.243.845-.416a7.21 7.21 0 0 0 .022-.93zM8.126 25.814l13.633 8.531c1.12.7 2.603.374 3.314-.729l.673-1.044a2.343 2.343 0 0 0-.553-3.135l-14.02-8.774a2.421 2.421 0 0 0-3.115.841l-.672 1.044a2.345 2.345 0 0 0 .74 3.266z"/>
    </g>
</svg>
