<svg xmlns="http://www.w3.org/2000/svg" width="34" height="56" viewBox="0 0 34 56">
    <path fill="#1EAEDD" fill-rule="nonzero" d="M30.073 0H4.44C2.303 0 .556 1.702.556 3.778v48.384c0 2.073 1.75 3.774 3.884 3.777h25.633c2.135-.003 3.884-1.704 3.884-3.777V3.778C33.957 1.702 32.21 0 30.073 0zM13.154 2.723h8.203c.258 0 .468.205.468.457 0 .25-.209.457-.468.457h-8.201a.467.467 0 0 1-.472-.457c0-.252.214-.457.47-.457zm-7.307 42.25V9.964h22.82l-.004 31.856-5.148-8.675c1.545-2.292 1.765-5.307.262-7.842-1.504-2.535-4.3-3.857-7.111-3.702l2.857 4.813c.95 1.602.384 3.653-1.26 4.578-1.646.926-3.755.374-4.705-1.226l-2.857-4.816c-1.544 2.29-1.762 5.31-.259 7.843 1.503 2.536 4.299 3.856 7.108 3.7l5.032 8.48H5.847zm11.409 9.083c-1.073 0-1.942-.85-1.942-1.894 0-1.043.87-1.89 1.942-1.89s1.942.847 1.942 1.89c0 1.044-.868 1.894-1.942 1.894z"/>
</svg>
