<svg xmlns="http://www.w3.org/2000/svg" width="47" height="37" viewBox="0 0 47 37">
    <path fill="#1EAEDD" fill-rule="nonzero" d="M23.5 13.848c-3.894 0-7.05 3.101-7.05 6.924 0 3.825 3.156 6.924 7.05 6.924 3.893 0 7.05-3.1 7.05-6.924 0-3.823-3.157-6.924-7.05-6.924zm18.8-6.924h-5.64c-.775 0-1.611-.59-1.856-1.314l-1.458-4.297C33.1.591 32.266 0 31.49 0H15.51c-.775 0-1.611.59-1.856 1.314L12.196 5.61c-.246.722-1.08 1.313-1.856 1.313H4.7C2.115 6.924 0 9.001 0 11.54v20.773c0 2.538 2.115 4.616 4.7 4.616h37.6c2.585 0 4.7-2.078 4.7-4.617V11.54c0-2.539-2.115-4.616-4.7-4.616zM23.5 32.313c-6.49 0-11.75-5.167-11.75-11.54 0-6.374 5.26-11.54 11.75-11.54 6.488 0 11.75 5.166 11.75 11.54 0 6.373-5.262 11.54-11.75 11.54zm17.155-17.545c-.908 0-1.645-.723-1.645-1.615s.737-1.616 1.645-1.616c.909 0 1.645.724 1.645 1.616 0 .892-.736 1.615-1.645 1.615z"/>
</svg>
