<svg xmlns="http://www.w3.org/2000/svg" width="60" height="60" viewBox="0 0 60 60">
    <path fill="#1EAEDD" fill-rule="nonzero" d="M59.613 26.724c-.094-.836-1.074-1.466-1.922-1.466-2.74 0-5.172-1.601-6.191-4.08-1.041-2.537-.37-5.496 1.672-7.361a1.65 1.65 0 0 0 .182-2.246 29.536 29.536 0 0 0-4.737-4.763 1.67 1.67 0 0 0-2.272.183c-1.783 1.965-4.984 2.696-7.458 1.668a6.61 6.61 0 0 1-4.038-6.464A1.654 1.654 0 0 0 33.38.455a29.967 29.967 0 0 0-6.728-.017 1.66 1.66 0 0 0-1.48 1.704c.097 2.76-1.545 5.312-4.094 6.352-2.444.994-5.624.27-7.402-1.679a1.672 1.672 0 0 0-2.257-.188 29.663 29.663 0 0 0-4.837 4.762 1.651 1.651 0 0 0 .179 2.262 6.578 6.578 0 0 1 1.672 7.429c-1.032 2.447-3.585 4.024-6.506 4.024-.948-.03-1.623.604-1.728 1.463a29.718 29.718 0 0 0-.013 6.77c.095.84 1.104 1.464 1.961 1.464 2.605-.066 5.103 1.538 6.153 4.08 1.045 2.537.372 5.495-1.672 7.362a1.648 1.648 0 0 0-.182 2.243 29.64 29.64 0 0 0 4.73 4.765c.685.55 1.682.472 2.276-.18 1.79-1.97 4.99-2.699 7.454-1.669a6.602 6.602 0 0 1 4.046 6.462 1.655 1.655 0 0 0 1.467 1.74 29.762 29.762 0 0 0 6.727.017 1.66 1.66 0 0 0 1.48-1.705 6.616 6.616 0 0 1 4.092-6.348c2.46-1.001 5.625-.269 7.405 1.676.59.64 1.568.719 2.256.188a29.702 29.702 0 0 0 4.837-4.762 1.649 1.649 0 0 0-.178-2.263c-2.081-1.875-2.756-4.861-1.675-7.426 1.016-2.415 3.473-4.036 6.116-4.036l.37.01c.858.069 1.647-.589 1.75-1.46.264-2.239.267-4.516.013-6.77zm-29.712 20.47c-9.52 0-17.238-7.684-17.238-17.164S20.38 12.866 29.9 12.866c9.52 0 17.238 7.685 17.238 17.164 0 3.218-.891 6.227-2.438 8.8l-7.549-7.515c.547-1.283.835-2.674.835-4.11 0-2.81-1.1-5.452-3.095-7.44a10.52 10.52 0 0 0-7.472-3.081c-.942 0-1.88.124-2.787.37a1.194 1.194 0 0 0-.827.83c-.109.406.013.821.331 1.138 0 0 3.727 3.74 4.974 4.98.13.13.13.44.112.553l-.012.081c-.126 1.365-.368 3.003-.568 3.633l-.08.076-.082.085c-.641.204-2.312.449-3.704.573v-.008l-.062.016a.798.798 0 0 1-.632-.24 3130.506 3130.506 0 0 0-4.879-4.831c-.321-.319-.65-.386-.87-.386-.512 0-.97.368-1.115.897a10.527 10.527 0 0 0 2.728 10.195 10.523 10.523 0 0 0 7.473 3.082c1.442 0 2.838-.287 4.127-.832l7.63 7.598a17.205 17.205 0 0 1-9.276 2.7z"/>
</svg>
