<svg xmlns="http://www.w3.org/2000/svg" width="46" height="45" viewBox="0 0 46 45">
    <g fill="#1EAEDD" fill-rule="nonzero">
        <path d="M29.987 20.95a4.738 4.738 0 0 1 3.159-.778l12.46-12.464L38.628.729 26.165 13.193a4.706 4.706 0 0 1-.81 3.198l4.632 4.56zM8.25 36.13l-.452-.451-2.363 1.91-3.98 6.271 1.019 1.019 6.276-3.98 1.908-2.356-.453-.458 7.926-7.928-1.97-1.942z"/>
        <path d="M19.088 14.153a9.726 9.726 0 0 0-2.482-9.5A9.724 9.724 0 0 0 7.181 2.15l5.508 5.506-1.445 5.394-5.4 1.445L.337 8.992a9.714 9.714 0 0 0 2.51 9.42c2.676 2.678 6.534 3.464 9.907 2.366l.03.031 22.658 22.658a4.588 4.588 0 0 0 3.246 1.347 4.595 4.595 0 0 0 3.247-7.84L19.088 14.153zm19.995 28.544a1.75 1.75 0 0 1-1.746-1.754 1.752 1.752 0 1 1 1.746 1.753z"/>
    </g>
</svg>
