<svg xmlns="http://www.w3.org/2000/svg" width="58" height="32" viewBox="0 0 58 32">
    <path fill="#1EAEDD" fill-rule="nonzero" d="M4.52 22.188h33.983v4.615H13.779c-.737-1.987-2.68-3.413-4.958-3.413a5.283 5.283 0 0 0-4.925 3.326c-.94-.267-1.627-1.114-1.627-2.122v-.196c0-1.221 1.008-2.21 2.25-2.21zm8.052 5.868c0 2.125-1.761 3.854-3.927 3.854-2.164 0-3.925-1.729-3.925-3.854 0-2.126 1.761-3.856 3.925-3.856 2.166 0 3.927 1.73 3.927 3.856zm-1.2 0c0-1.476-1.224-2.677-2.727-2.677S5.92 26.58 5.92 28.056c0 1.475 1.223 2.676 2.725 2.676 1.504 0 2.726-1.2 2.726-2.676zm40.884 0c0 2.125-1.761 3.854-3.926 3.854s-3.926-1.729-3.926-3.854c0-2.126 1.761-3.856 3.926-3.856s3.926 1.73 3.926 3.856zm-1.2 0c0-1.476-1.223-2.677-2.725-2.677-1.503 0-2.725 1.201-2.725 2.677 0 1.475 1.222 2.676 2.725 2.676 1.502 0 2.725-1.2 2.725-2.676zm6.926-11.074V25.7a.744.744 0 0 1-.75.736H53.31a5.287 5.287 0 0 0-4.805-3.045 5.29 5.29 0 0 0-4.806 3.045h-2.645a.744.744 0 0 1-.752-.736V8.193c0-.407.337-.737.752-.737h9.876c.415 0 1.045.136 1.501.737l5.551 8.79zm-3.5-1.915l-3.375-5.5c-.262-.473-.582-.736-1.727-.736h-6.126c-.414 0-.75.33-.75.736v5.5c0 .407.336.737.75.737h10.477c.415 0 .752-.33.752-.737zm2.925 8.372a.694.694 0 0 0-.7-.687c-.387 0-.7.309-.7.687v1.303c0 .38.313.687.7.687.387 0 .7-.308.7-.687v-1.303zM0 20.869h38.503V0H0v20.869z"/>
</svg>
