<svg xmlns="http://www.w3.org/2000/svg" width="43" height="33" viewBox="0 0 43 33">
    <path fill="#FFF" fill-rule="nonzero" d="M42.179 4.61L38.409.842a2.565 2.565 0 0 0-1.883-.776c-.74 0-1.368.258-1.885.776l-18.18 18.206-8.147-8.175a2.565 2.565 0 0 0-1.884-.776c-.74 0-1.368.258-1.885.776l-3.77 3.769A2.565 2.565 0 0 0 0 16.526c0 .739.259 1.367.776 1.885l10.032 10.03 3.769 3.77a2.564 2.564 0 0 0 1.884.775c.74 0 1.367-.259 1.885-.776l3.769-3.768L42.179 8.379a2.567 2.567 0 0 0 .776-1.885c0-.738-.26-1.366-.776-1.884z"/>
</svg>
