<svg xmlns="http://www.w3.org/2000/svg" width="15" height="16" viewBox="0 0 15 16">
    <g fill="#70BEE9" fill-rule="nonzero">
        <path d="M14.732 1.067h-1.875v-.8A.267.267 0 0 0 12.59 0h-1.875a.267.267 0 0 0-.268.267v.8H4.554v-.8A.267.267 0 0 0 4.286 0H2.41a.267.267 0 0 0-.268.267v.8H.268A.267.267 0 0 0 0 1.333V15.733c0 .148.12.267.268.267h14.464c.148 0 .268-.12.268-.267V1.333a.267.267 0 0 0-.268-.266zm-3.75-.534h1.34v1.6h-1.34v-1.6zm-8.303 0h1.339v1.6h-1.34v-1.6zM.536 1.6h1.607v.8c0 .147.12.267.268.267h1.875c.148 0 .268-.12.268-.267v-.8h5.892v.8c0 .147.12.267.268.267h1.875c.148 0 .268-.12.268-.267v-.8h1.607V4H.536V1.6zm0 13.867V4.533h13.928v10.934H.536z"/>
        <path d="M9.643 6.133H2.41v7.734H12.589V6.133H9.643zm-1.875.534h1.875v1.866H7.768V6.667zm1.875 4.266H7.768V9.067h1.875v1.866zM5.357 9.067h1.875v1.866H5.357V9.067zm0-2.4h1.875v1.866H5.357V6.667zm-2.41 0H4.82v1.866H2.946V6.667zm0 2.4H4.82v1.866H2.946V9.067zm1.874 4.266H2.946v-1.866h1.875v1.866zm2.411 0H5.357v-1.866h1.875v1.866zm2.41 0H7.769v-1.866h1.875v1.866zm2.412 0h-1.875v-1.866h1.875v1.866zm0-2.4h-1.875V9.067h1.875v1.866zm0-4.266v1.866h-1.875V6.667h1.875z"/>
    </g>
</svg>
