<svg xmlns="http://www.w3.org/2000/svg" width="12" height="13" viewBox="0 0 12 13">
    <g fill="#A5A3A3" fill-rule="nonzero">
        <path d="M11.786.867h-1.5v-.65A.215.215 0 0 0 10.07 0h-1.5a.215.215 0 0 0-.214.217v.65H3.643v-.65A.215.215 0 0 0 3.429 0h-1.5a.215.215 0 0 0-.215.217v.65h-1.5A.215.215 0 0 0 0 1.083V12.783c0 .12.096.217.214.217h11.572a.215.215 0 0 0 .214-.217V1.083a.215.215 0 0 0-.214-.216zm-3-.434h1.071v1.3H8.786v-1.3zm-6.643 0h1.071v1.3H2.143v-1.3zM.429 1.3h1.285v.65c0 .12.096.217.215.217h1.5a.215.215 0 0 0 .214-.217V1.3h4.714v.65c0 .12.096.217.214.217h1.5a.215.215 0 0 0 .215-.217V1.3h1.285v1.95H.43V1.3zm0 11.267V3.683H11.57v8.884H.43z"/>
        <path d="M7.714 4.983H1.93v6.284h8.142V4.983H7.714zm-1.5.434h1.5v1.516h-1.5V5.417zm1.5 3.466h-1.5V7.367h1.5v1.516zM4.286 7.367h1.5v1.516h-1.5V7.367zm0-1.95h1.5v1.516h-1.5V5.417zm-1.929 0h1.5v1.516h-1.5V5.417zm0 1.95h1.5v1.516h-1.5V7.367zm1.5 3.466h-1.5V9.317h1.5v1.516zm1.929 0h-1.5V9.317h1.5v1.516zm1.928 0h-1.5V9.317h1.5v1.516zm1.929 0h-1.5V9.317h1.5v1.516zm0-1.95h-1.5V7.367h1.5v1.516zm0-3.466v1.516h-1.5V5.417h1.5z"/>
    </g>
</svg>
