<svg xmlns="http://www.w3.org/2000/svg" width="45" height="45" viewBox="0 0 45 45">
    <path fill="#FFFAFA" fill-opacity=".918" fill-rule="nonzero" d="M41.938 11.194a22.382 22.382 0 0 0-8.18-8.18C30.316 1.004 26.556 0 22.478 0s-7.839 1.005-11.282 3.014a22.376 22.376 0 0 0-8.18 8.18C1.005 14.638 0 18.399 0 22.476c0 4.078 1.005 7.838 3.014 11.282a22.382 22.382 0 0 0 8.18 8.18c3.444 2.01 7.205 3.014 11.282 3.014 4.078 0 7.839-1.005 11.283-3.014a22.376 22.376 0 0 0 8.18-8.18c2.008-3.444 3.013-7.204 3.013-11.282s-1.005-7.839-3.014-11.282zm-4.888 7.858L21.16 34.943c-.372.371-.82.556-1.347.556a1.8 1.8 0 0 1-1.317-.556L7.901 24.35c-.35-.351-.526-.79-.526-1.317 0-.546.175-.995.526-1.346l2.664-2.634a1.8 1.8 0 0 1 1.317-.556 1.8 1.8 0 0 1 1.317.556l6.614 6.614 11.94-11.911a1.8 1.8 0 0 1 1.317-.556 1.8 1.8 0 0 1 1.317.556l2.664 2.634c.351.351.526.8.526 1.346 0 .527-.175.966-.527 1.317z"/>
</svg>
