<svg xmlns="http://www.w3.org/2000/svg" width="42" height="42" viewBox="0 0 42 42">
    <g fill="none" fill-rule="evenodd">
        <ellipse cx="20.971" cy="20.971" fill="#00B4DC" rx="20.971" ry="20.971"/>
        <path fill="#FFF" d="M29.189 21.719c.038 2.69-.77 4.972-2.426 6.842-1.81 2.05-4.229 3.075-7.258 3.075H17.62V27.83h1.828c1.733 0 3.107-.62 4.12-1.864.937-1.127 1.406-2.537 1.406-4.228 0-1.665-.475-3.056-1.425-4.17-1.027-1.218-2.394-1.827-4.1-1.827h-3.08v15.895h-2.195c.205-.55.282-1.146.23-1.788a4.767 4.767 0 0 0-.095-.73 7.66 7.66 0 0 0-.135-.5c.128.45.09 1.006-.116 1.672-.077.244-.173.5-.289.77-.089.191-.185.384-.288.576h-1.328V16.165H10.36l-1.482-4.23h10.626c2.991 0 5.39 1.007 7.2 3.018 1.656 1.833 2.484 4.088 2.484 6.766"/>
        <path stroke="#FEFEFE" stroke-width=".5" d="M29.189 21.719c.038 2.69-.77 4.972-2.426 6.842-1.81 2.05-4.229 3.075-7.258 3.075H17.62V27.83h1.828c1.733 0 3.107-.62 4.12-1.864.937-1.127 1.406-2.537 1.406-4.228 0-1.665-.475-3.056-1.425-4.17-1.027-1.218-2.394-1.827-4.1-1.827h-3.08v15.895h-2.195c.205-.55.282-1.146.23-1.788a4.767 4.767 0 0 0-.095-.73 7.66 7.66 0 0 0-.135-.5c.128.45.09 1.006-.116 1.672-.077.244-.173.5-.289.77-.089.191-.185.384-.288.576h-1.328V16.165H10.36l-1.482-4.23h10.626c2.991 0 5.39 1.007 7.2 3.018 1.656 1.833 2.484 4.088 2.484 6.766z"/>
        <path fill="#FFF" d="M22.193 26.257l-1.305-1.678H31.9l-1.689 1.678zM22.853 23.668l-1.966-1.678H37.47l-2.543 1.678zM36.912 20.003h-.683c-.669.814-1.61 1.22-2.825 1.22-1.068 0-1.966-.328-2.695-.985-.8-.718-1.2-1.678-1.2-2.88 0-1.208.4-2.176 1.2-2.903.734-.672 1.632-1.001 2.695-.986 1.124 0 2.025.362 2.703 1.084.415.44.683.976.805 1.607v.015h-.63a1.585 1.585 0 0 0-.198-.614 2.525 2.525 0 0 0-.258-.364c.096.117.162.276.197.478.03.147.041.313.03.5h-.713a1.962 1.962 0 0 0-.531-.773c-.354-.308-.823-.462-1.405-.462-.673 0-1.217.222-1.632.667-.415.444-.623 1.028-.623 1.75 0 .668.206 1.228.615 1.683.42.47.962.705 1.625.705 1.062 0 1.723-.455 1.981-1.364h2.103l-.561 1.622z"/>
    </g>
</svg>
