<svg xmlns="http://www.w3.org/2000/svg" width="11" height="10" viewBox="0 0 11 10">
    <g fill="#519DC7" fill-rule="nonzero">
        <path d="M10.16 4.878c-.166 0-.3.137-.3.308v2.81c0 .765-.603 1.385-1.342 1.385H1.942C1.201 9.381.6 8.759.6 7.997V5.14a.303.303 0 0 0-.3-.31c-.166 0-.299.138-.299.31v2.856c0 1.105.872 2.002 1.942 2.002h6.576c1.072 0 1.942-.9 1.942-2.002v-2.81a.305.305 0 0 0-.3-.31z"/>
        <path d="M5.02 7.546a.288.288 0 0 0 .422 0l1.903-1.964a.315.315 0 0 0 0-.437.293.293 0 0 0-.424 0L5.53 6.582V.315a.303.303 0 0 0-.3-.31c-.167 0-.3.138-.3.31v6.267L3.536 5.145a.293.293 0 0 0-.424 0 .315.315 0 0 0 0 .437L5.02 7.546z"/>
    </g>
</svg>
