<svg xmlns="http://www.w3.org/2000/svg" width="26" height="25" viewBox="0 0 26 25">
    <g fill="none" fill-rule="evenodd">
        <ellipse cx="13" cy="12.5" fill="#607D8B" rx="13" ry="12.5"/>
        <path fill="#FFF" fill-rule="nonzero" d="M8.132 18.36a2.425 2.425 0 0 1 1.753-.66c.251 0 .502.027.748.08a.643.643 0 0 0 .866-.047l.306-.312 7.03-8.237a.666.666 0 0 0-.045-.879L16.77 6.216a.644.644 0 0 0-.886-.033L7.857 13.36l-.032.028-.02.022-.288.288a.666.666 0 0 0-.045.879c.06.27.307 1.647-.568 2.535a.222.222 0 0 0-.037.246l-.804.81a.222.222 0 0 0 .057.352l.866.439c.03.016.064.024.098.024h6.933c.12 0 .217-.098.217-.22a.218.218 0 0 0-.217-.22H7.701l.178-.144a.214.214 0 0 0 .253-.04zm-.775-1.1c.964-1.157.544-2.771.524-2.842a.22.22 0 0 0-.052-.096.221.221 0 0 1-.065-.158c0-.059.022-.115.063-.156l.152-.154 3.369 3.416-.154.153a.215.215 0 0 1-.306 0 .244.244 0 0 0-.097-.057 3.89 3.89 0 0 0-.908-.105 2.869 2.869 0 0 0-1.898.637l-.628-.637z"/>
    </g>
</svg>
