<svg xmlns="http://www.w3.org/2000/svg" width="30" height="30" viewBox="0 0 30 30">
    <path fill="#F44336" fill-rule="nonzero" d="M20.054 14.584l8.207-8.209a3.105 3.105 0 0 0 0-4.377L27.168.904a3.102 3.102 0 0 0-4.378 0l-8.207 8.209-8.21-8.21a3.103 3.103 0 0 0-4.375 0L.902 1.999a3.107 3.107 0 0 0 0 4.377l8.208 8.207-8.207 8.21a3.105 3.105 0 0 0 0 4.375l1.095 1.094a3.103 3.103 0 0 0 4.376 0l8.209-8.206 8.207 8.206a3.105 3.105 0 0 0 4.378 0l1.093-1.093a3.103 3.103 0 0 0 0-4.377l-8.207-8.207z"/>
</svg>
