<svg xmlns="http://www.w3.org/2000/svg" xmlns:xlink="http://www.w3.org/1999/xlink" preserveAspectRatio="xMidYMid" width="36" height="36" viewBox="0 0 36 36">
  <defs>
    <style>
      .cls-1 {
        stroke: #565656;
        stroke-width: 1px;
        fill: none;
        fill-rule: evenodd;
      }
    </style>
  </defs>
  <path d="M30.520,9.709 C29.359,10.083 28.303,10.724 27.465,11.563 L20.371,18.657 L18.628,16.914 L23.139,12.404 C24.763,10.780 25.552,8.571 25.303,6.342 C25.158,5.042 25.660,3.747 26.647,2.880 C26.891,2.664 27.161,2.481 27.450,2.333 L26.973,3.861 C26.889,4.132 26.846,4.411 26.846,4.692 C26.846,5.915 27.631,6.981 28.801,7.347 C30.266,7.803 31.829,6.984 32.286,5.519 L32.781,3.931 L33.293,5.833 C33.311,6.928 32.894,7.957 32.120,8.730 C31.667,9.184 31.128,9.513 30.520,9.709 ZM10.976,31.948 C11.121,33.250 10.619,34.545 9.634,35.412 C9.389,35.627 9.119,35.810 8.830,35.958 L9.307,34.430 C9.759,32.978 8.957,31.429 7.517,30.957 C7.504,30.953 7.492,30.948 7.479,30.944 C6.769,30.723 6.016,30.792 5.357,31.137 C4.699,31.482 4.215,32.063 3.994,32.773 L3.498,34.360 C3.174,33.786 2.996,33.137 2.986,32.458 C2.968,31.364 3.385,30.335 4.159,29.561 C4.613,29.107 5.152,28.777 5.759,28.582 C6.920,28.208 7.976,27.567 8.814,26.729 L15.909,19.635 L17.651,21.377 L13.141,25.887 C11.516,27.512 10.727,29.721 10.976,31.948 ZM7.120,7.125 C6.983,6.988 5.604,7.458 5.425,7.458 C5.346,7.458 5.268,7.472 5.193,7.498 L3.742,7.364 L1.119,3.181 L2.175,2.125 L3.175,1.125 L7.358,3.748 L7.492,5.199 C7.466,5.273 7.453,5.351 7.453,5.431 C7.453,5.616 6.989,6.994 7.120,7.125 ZM27.992,22.208 L26.528,24.445 L23.439,27.534 L22.202,27.998 L21.798,27.594 L26.588,22.804 L27.992,22.208 ZM36.119,32.813 L32.807,36.126 L24.818,28.137 L28.131,24.825 L36.119,32.813 Z" class="cls-1"/>
</svg>
