<svg xmlns="http://www.w3.org/2000/svg" width="18" height="16" viewBox="0 0 18 16">
    <path fill="#BBCADB" fill-rule="nonzero" d="M2.32 9.892A7.4 7.4 0 0 1 .158 6.158C-.086 5.089.025 4.496.025 4.496.23 2.106 1.86.099 4.124.099c1.413 0 2.592.77 3.308 1.937l-.006-.004-2.33 3.539 4.54.627-3.57 3.39 2.647 1.714-1.136 3.532L2.32 9.892zm14.759-3.734a7.398 7.398 0 0 1-2.162 3.734L7.835 15.2l-.784-.8 3.98-3.378L8.662 9.49l3.952-3.752-4.862-.671 1.68-2.553a.127.127 0 0 0 .042-.046C10.16 1.06 11.531.1 13.112.1c2.264 0 3.894 2.006 4.1 4.396 0 0 .11.594-.133 1.662z"/>
</svg>
