<svg xmlns="http://www.w3.org/2000/svg" width="23" height="20" viewBox="0 0 23 20">
    <path fill="#BBCADB" fill-rule="nonzero" d="M3.003 12.863A9.632 9.632 0 0 1 .204 8.007C-.11 6.618.032 5.847.032 5.847.298 2.736 2.408.128 5.338.128c1.83 0 3.355 1 4.282 2.519l-.008-.006-3.016 4.602 5.877.816-4.621 4.408 3.426 2.229-1.47 4.592-6.805-6.426zm19.104-4.855a9.63 9.63 0 0 1-2.798 4.856l-9.168 6.902-1.014-1.04 5.151-4.393-3.064-1.993 5.115-4.879-6.293-.872 2.175-3.32a.165.165 0 0 0 .054-.06c.884-1.83 2.66-3.08 4.708-3.08 2.93 0 5.04 2.61 5.305 5.718 0 0 .144.772-.171 2.161z"/>
</svg>
