<svg xmlns="http://www.w3.org/2000/svg" width="15" height="15" viewBox="0 0 15 15">
    <g fill="#FFF" fill-rule="nonzero">
        <path d="M13.75 0h-7.5C5.56 0 5 .56 5 1.248V3.43a.312.312 0 0 0 .625 0V1.248c0-.344.28-.624.625-.624h7.5c.345 0 .625.28.625.624v12.475c0 .344-.28.624-.625.624h-7.5a.625.625 0 0 1-.625-.624V11.54a.312.312 0 0 0-.625 0v2.183c0 .688.56 1.248 1.25 1.248h7.5c.69 0 1.25-.56 1.25-1.248V1.248A1.25 1.25 0 0 0 13.75 0z"/>
        <path d="M6.976 10.686a.312.312 0 1 0 .423.46l3.75-3.43a.311.311 0 0 0 0-.46l-3.75-3.431a.312.312 0 1 0-.422.46l3.157 2.888H.313a.312.312 0 1 0 0 .624h9.821l-3.158 2.89z"/>
    </g>
</svg>
