<svg xmlns="http://www.w3.org/2000/svg" width="18" height="18" viewBox="0 0 18 18">
    <path fill="#E6E3E3" fill-rule="nonzero" d="M8.949.072L0 6.924v10.897h17.896V6.924L8.949.072zm-2.476 4.89a2.62 2.62 0 0 1 1.084-1.11c.457-.248.98-.372 1.57-.372.499 0 .944.1 1.333.298.389.2.685.483.893.85.202.369.307.77.307 1.204a2.3 2.3 0 0 1-.468 1.407c-.392.53-.892.793-1.503.793-.165 0-.288-.028-.372-.087a.438.438 0 0 1-.168-.26c-.23.233-.502.35-.807.35-.33 0-.603-.117-.82-.348-.217-.234-.325-.545-.325-.93 0-.481.13-.916.392-1.31.318-.48.724-.722 1.22-.722.354 0 .615.139.782.417l.075-.339h.787l-.45 2.187c-.028.14-.042.228-.042.269 0 .052.012.088.034.115.022.025.05.038.08.038.098 0 .22-.058.37-.178.203-.153.367-.363.491-.622.125-.26.19-.53.19-.81 0-.499-.177-.917-.53-1.256-.354-.334-.848-.504-1.48-.504-.539 0-.994.112-1.367.339a2.13 2.13 0 0 0-.848.95 2.993 2.993 0 0 0-.283 1.273c0 .428.108.82.318 1.17.212.355.508.61.89.773.382.16.82.241 1.311.241.472 0 .88-.067 1.222-.203.343-.136.617-.336.825-.61h.632a2.197 2.197 0 0 1-.911.973c-.47.268-1.044.402-1.72.402-.657 0-1.22-.113-1.697-.34a2.27 2.27 0 0 1-1.064-1.003 3.075 3.075 0 0 1-.346-1.446c0-.572.13-1.106.395-1.6zM.631 7.14l6.602 4.542-6.602 5.241V7.14zm.501 10.132l7.817-6.205 7.814 6.205H1.133zm16.132-.349l-6.601-5.241 6.601-4.542v9.783zM9.271 5.46c.105.123.157.3.157.53 0 .205-.039.427-.115.664-.075.239-.167.42-.272.544a.767.767 0 0 1-.223.191.618.618 0 0 1-.317.085.474.474 0 0 1-.381-.183c-.101-.122-.151-.31-.151-.569 0-.193.035-.416.11-.666.073-.251.181-.443.326-.58a.681.681 0 0 1 .473-.203c.158.001.29.064.393.187z"/>
</svg>
