<svg xmlns="http://www.w3.org/2000/svg" width="37" height="37" viewBox="0 0 37 37">
    <path fill="#DDD" fill-rule="nonzero" d="M18.495 0C8.28 0 0 8.28 0 18.495c0 10.214 8.28 18.494 18.495 18.494 10.214 0 18.494-8.28 18.494-18.494C36.99 8.28 28.71 0 18.495 0zM3.288 18.495c0-8.399 6.808-15.207 15.207-15.207 3.47 0 6.668 1.163 9.227 3.12L6.408 27.722a15.139 15.139 0 0 1-3.12-9.227zM18.495 33.7a15.14 15.14 0 0 1-9.175-3.08L30.622 9.32a15.14 15.14 0 0 1 3.08 9.175c0 8.398-6.809 15.206-15.207 15.206z"/>
</svg>
