<svg xmlns="http://www.w3.org/2000/svg" width="15" height="15" viewBox="0 0 15 15">
    <path fill="#FFF" fill-rule="nonzero" d="M14.082 2.688L12.258.865a1.325 1.325 0 0 0-.943-.391c-.357 0-.692.138-.944.39L1.823 9.44l-1.35 5.033 5.069-1.357 8.54-8.54c.252-.253.391-.588.391-.944 0-.357-.14-.692-.391-.944zM2.522 9.596L8.99 3.104l2.854 2.853-6.48 6.48-2.842-2.84zm-.271.586l2.515 2.515-1.998.535-1.053-1.053.536-1.997zm11.402-6.035l-.919.92L9.88 2.212l.921-.92a.745.745 0 0 1 1.03 0l1.823 1.824a.723.723 0 0 1 0 1.03z"/>
</svg>
