<svg xmlns="http://www.w3.org/2000/svg" width="14" height="11" viewBox="0 0 14 11">
    <path fill="#4A4A4A" fill-rule="nonzero" d="M7 4.125c-1.16 0-2.1.924-2.1 2.063 0 1.139.94 2.062 2.1 2.062 1.16 0 2.1-.923 2.1-2.063 0-1.138-.94-2.062-2.1-2.062zm5.6-2.063h-1.68a.623.623 0 0 1-.553-.39L9.933.391A.623.623 0 0 0 9.38 0H4.62a.623.623 0 0 0-.553.391l-.434 1.28a.623.623 0 0 1-.553.391H1.4c-.77 0-1.4.62-1.4 1.376v6.187C0 10.381.63 11 1.4 11h11.2c.77 0 1.4-.619 1.4-1.375V3.437c0-.756-.63-1.374-1.4-1.374zM7 9.625c-1.933 0-3.5-1.539-3.5-3.438C3.5 4.29 5.067 2.75 7 2.75s3.5 1.54 3.5 3.438c0 1.898-1.567 3.437-3.5 3.437zm5.11-5.226a.486.486 0 0 1-.49-.481c0-.266.22-.481.49-.481s.49.215.49.48c0 .267-.22.482-.49.482z"/>
</svg>
