<svg xmlns="http://www.w3.org/2000/svg" width="16" height="16" viewBox="0 0 16 16">
    <g fill="#E6E3E3" fill-rule="nonzero">
        <path d="M7.194 11.191h1.599v1.599H7.194z"/>
        <path d="M7.994 0a7.994 7.994 0 1 0 0 15.988A7.994 7.994 0 0 0 7.994 0zm0 14.54a6.547 6.547 0 0 1 0-13.093 6.555 6.555 0 0 1 6.547 6.547 6.547 6.547 0 0 1-6.547 6.547z"/>
        <path d="M11.103 5.636a3.197 3.197 0 0 0-6.307.759h1.599a1.605 1.605 0 0 1 3.198.272 1.663 1.663 0 0 1-1.687 1.327.711.711 0 0 0-.712.711v1.687h1.6V9.48a3.197 3.197 0 0 0 2.31-3.845z"/>
    </g>
</svg>
