<svg xmlns="http://www.w3.org/2000/svg" width="34" height="37" viewBox="0 0 34 37">
    <g fill="#9B9B9B" fill-rule="nonzero">
        <path d="M2.932 15.44a2.9 2.9 0 0 0 2.675-1.809c1.865-4.519 6.251-7.704 11.364-7.704 2.818 0 5.402.983 7.474 2.612l-1.624.255a1.278 1.278 0 0 0-1.061 1.1 1.292 1.292 0 0 0 .736 1.348l8.928 4.084a1.25 1.25 0 0 0 1.205-.091c.36-.236.58-.641.582-1.077l.046-10.004a1.285 1.285 0 0 0-.896-1.238 1.256 1.256 0 0 0-1.425.518l-1.23 1.88C26.423 2.03 21.928 0 16.97 0 9.455 0 2.992 4.668.236 11.302a3.02 3.02 0 0 0 .256 2.804 2.915 2.915 0 0 0 2.44 1.334zM33.45 22.836a2.915 2.915 0 0 0-2.44-1.334 2.9 2.9 0 0 0-2.674 1.808c-1.865 4.52-6.252 7.704-11.365 7.704-2.818 0-5.402-.982-7.473-2.611l1.624-.255a1.278 1.278 0 0 0 1.06-1.1 1.292 1.292 0 0 0-.735-1.348l-8.928-4.085a1.25 1.25 0 0 0-1.206.092c-.36.236-.579.641-.581 1.077L.685 32.788c-.003.569.362 1.072.897 1.238a1.256 1.256 0 0 0 1.424-.518l1.231-1.881c3.281 3.284 7.777 5.315 12.734 5.315 7.517 0 13.98-4.668 16.735-11.302a3.02 3.02 0 0 0-.255-2.804z"/>
    </g>
</svg>
