<svg xmlns="http://www.w3.org/2000/svg" width="42" height="42" viewBox="0 0 42 42">
    <g fill="none" fill-rule="evenodd">
        <ellipse cx="20.971" cy="20.971" fill="#616161" rx="20.971" ry="20.971"/>
        <path fill="#FFF" d="M13.201 20.631h2.6V10.235h5.824c1.399 0 2.589.193 3.57.58.981.385 1.78.897 2.395 1.534a5.792 5.792 0 0 1 1.347 2.223c.282.846.423 1.717.423 2.615a7.89 7.89 0 0 1-.423 2.599 5.715 5.715 0 0 1-1.347 2.16c-.615.627-1.414 1.123-2.395 1.488-.981.365-2.171.548-3.57.548h-1.754v2.38h5.512v3.226H19.87v2.567h-4.07v-2.567h-2.6v-3.226h2.6v-2.38h-2.6v-3.35zm8.017 0c.564 0 1.09-.047 1.581-.14.49-.094.924-.267 1.3-.517s.668-.6.877-1.05c.208-.448.313-1.027.313-1.737 0-.71-.105-1.305-.313-1.785a2.777 2.777 0 0 0-.877-1.143 3.447 3.447 0 0 0-1.3-.595 6.928 6.928 0 0 0-1.581-.172H19.87v7.14h1.347z"/>
    </g>
</svg>
