<svg xmlns="http://www.w3.org/2000/svg" width="26" height="25" viewBox="0 0 26 25">
    <g fill="none" fill-rule="evenodd">
        <ellipse cx="13" cy="12.5" fill="#009688" rx="13" ry="12.5"/>
        <path fill="#FFF" fill-rule="nonzero" d="M7.6 16.815c0 .127.056.253.152.343l1.466 1.37a.543.543 0 0 0 .732 0l3.053-2.854 3.053 2.855a.544.544 0 0 0 .732 0l1.466-1.371a.474.474 0 0 0 .151-.343.474.474 0 0 0-.151-.342l-4.884-4.568a.543.543 0 0 0-.733 0l-4.885 4.568a.475.475 0 0 0-.152.342zm0-4.984c0 .127.056.253.152.343l1.466 1.37a.543.543 0 0 0 .732 0l3.053-2.854 3.053 2.855a.544.544 0 0 0 .732 0l1.466-1.371a.474.474 0 0 0 .151-.343.474.474 0 0 0-.151-.342L13.37 6.92a.543.543 0 0 0-.733 0L7.752 11.49a.475.475 0 0 0-.152.342z"/>
    </g>
</svg>
