<svg xmlns="http://www.w3.org/2000/svg" width="16" height="19" viewBox="0 0 16 19">
    <path fill="#60AD12" fill-rule="nonzero" d="M.033 16.008c0 .202.083.403.225.546L2.42 18.74c.142.143.34.226.54.226s.399-.083.54-.226l4.504-4.553 4.503 4.553a.77.77 0 0 0 .552.226.769.769 0 0 0 .528-.226l2.162-2.186a.786.786 0 0 0 .224-.546.786.786 0 0 0-.224-.547L8.544 8.176a.769.769 0 0 0-.54-.226c-.2 0-.4.083-.54.226L.257 15.46a.787.787 0 0 0-.225.547zm0-7.95c0 .202.083.403.225.546l2.162 2.187c.142.142.34.226.54.226s.399-.084.54-.226l4.504-4.554 4.503 4.554a.77.77 0 0 0 .552.226.769.769 0 0 0 .528-.226l2.162-2.187a.786.786 0 0 0 .224-.546.786.786 0 0 0-.224-.547L8.544.226A.769.769 0 0 0 8.004 0c-.2 0-.4.083-.54.226L.257 7.511a.787.787 0 0 0-.225.547z"/>
</svg>
